<?xml version="1.0" standalone="no"?>
<!DOCTYPE svg PUBLIC "-//W3C//DTD SVG 20010904//EN"
 "http://www.w3.org/TR/2001/REC-SVG-20010904/DTD/svg10.dtd">
<svg version="1.0" xmlns="http://www.w3.org/2000/svg"
 width="400.000000pt" height="400.000000pt" viewBox="0 0 400.000000 400.000000"
 preserveAspectRatio="xMidYMid meet">
<metadata>
Created by potrace 1.11, written by Peter Selinger 2001-2013
</metadata>
<g transform="translate(0.000000,400.000000) scale(0.100000,-0.100000)"
fill="#000000" stroke="none">
<path d="M1085 3822 c-10 -26 -5 -32 20 -28 38 7 48 16 35 31 -14 17 -48 15
-55 -3z"/>
<path d="M3115 3810 c3 -5 12 -7 20 -3 21 7 19 13 -6 13 -11 0 -18 -4 -14 -10z"/>
<path d="M3170 3808 c0 -4 5 -10 10 -13 6 -3 10 -2 10 4 0 5 8 12 18 14 9 3 5
4 -10 4 -16 -1 -28 -5 -28 -9z"/>
<path d="M3083 3788 c1 -16 5 -28 9 -28 4 0 8 -4 8 -10 0 -14 -28 -12 -33 3
-2 6 -4 0 -4 -16 0 -22 3 -26 18 -22 14 5 17 2 13 -9 -3 -8 -14 -18 -24 -21
-13 -4 -17 -12 -13 -23 4 -10 8 -12 11 -4 7 21 35 14 29 -7 -3 -14 -1 -18 10
-14 11 4 14 2 11 -8 -3 -8 -12 -13 -19 -11 -11 3 -12 1 -1 -9 10 -11 15 -10
29 4 13 13 15 20 5 29 -14 14 -16 38 -4 38 5 0 14 -10 20 -22 8 -18 11 -19 11
-6 1 12 6 15 18 11 13 -5 15 -2 10 11 -4 10 -7 21 -7 24 0 4 -5 0 -10 -8 -8
-13 -10 -13 -10 2 0 9 5 20 10 23 6 4 8 11 5 16 -4 5 -8 19 -10 31 -3 12 -10
26 -16 32 -8 8 -9 0 -4 -33 5 -32 4 -42 -5 -36 -6 4 -9 13 -6 21 3 9 -2 14
-14 14 -22 0 -27 16 -7 23 7 4 6 6 -5 6 -9 1 -19 7 -21 14 -3 6 -5 0 -4 -15z"/>
<path d="M3601 3803 c0 -7 -8 -13 -16 -13 -8 0 -15 -4 -15 -10 0 -5 7 -7 15
-4 10 4 15 0 15 -11 0 -9 5 -13 11 -9 6 3 15 0 20 -7 6 -9 9 -10 9 -2 0 7 -6
16 -14 20 -8 4 -16 17 -19 28 -2 11 -5 14 -6 8z"/>
<path d="M3180 3775 c0 -5 5 -17 10 -25 5 -8 10 -10 10 -5 0 6 -5 17 -10 25
-5 8 -10 11 -10 5z"/>
<path d="M3550 3735 c-7 -9 -10 -19 -6 -23 4 -4 12 2 18 12 8 15 12 16 19 5 4
-7 11 -10 16 -6 4 5 1 12 -7 17 -20 13 -26 12 -40 -5z"/>
<path d="M3501 3714 c0 -11 3 -14 6 -6 3 7 2 16 -1 19 -3 4 -6 -2 -5 -13z"/>
<path d="M3690 3704 c0 -9 -8 -23 -17 -31 -14 -10 -15 -13 -3 -11 8 1 29 -5
45 -15 17 -9 24 -16 18 -17 -20 0 -15 -27 6 -33 17 -4 19 1 17 44 -3 57 -12
71 -30 46 -18 -24 -24 -21 -18 8 2 15 0 25 -7 25 -6 0 -11 -7 -11 -16z"/>
<path d="M3190 3698 c0 -4 4 -8 9 -8 6 0 12 4 15 8 3 5 -1 9 -9 9 -8 0 -15 -4
-15 -9z"/>
<path d="M3567 3686 c-4 -9 2 -11 19 -8 29 5 32 17 5 19 -11 1 -22 -4 -24 -11z"/>
<path d="M3531 3663 c0 -25 1 -26 9 -8 12 27 12 35 0 35 -5 0 -10 -12 -9 -27z"/>
<path d="M3550 3651 c0 -5 7 -11 15 -15 8 -3 15 -1 15 3 0 5 -7 11 -15 15 -8
3 -15 1 -15 -3z"/>
<path d="M3630 3630 c0 -5 5 -10 11 -10 5 0 7 5 4 10 -3 6 -8 10 -11 10 -2 0
-4 -4 -4 -10z"/>
<path d="M420 3165 c-10 -12 -9 -16 3 -21 20 -7 37 3 37 22 0 18 -24 18 -40
-1z"/>
<path d="M303 3115 c0 -28 11 -32 32 -12 11 11 10 15 -6 25 -25 16 -26 16 -26
-13z"/>
<path d="M460 3120 c0 -5 -3 -9 -7 -9 -21 3 -33 -2 -33 -16 0 -18 -12 -19 -27
-4 -9 9 -18 4 -38 -15 -25 -25 -28 -26 -39 -10 -18 23 -66 11 -66 -16 0 -11
-6 -20 -14 -20 -12 0 -12 -5 -3 -30 6 -16 17 -30 24 -30 16 0 16 5 1 30 -7 10
-10 22 -6 25 7 7 58 -16 58 -27 0 -4 7 -8 15 -8 8 0 15 -5 15 -11 0 -5 4 -8 9
-5 5 4 20 2 33 -3 19 -7 26 -4 40 21 24 38 22 59 -1 31 -18 -22 -19 -22 -36
-3 -17 19 -17 20 3 20 15 0 20 5 16 15 -7 18 12 20 19 3 4 -10 8 -10 15 1 8
11 11 11 18 0 5 -8 9 -21 10 -29 3 -43 5 -50 12 -50 7 0 32 64 32 83 0 3 -9 3
-19 0 -21 -5 -36 23 -25 51 3 9 3 16 0 16 -3 0 -6 -4 -6 -10z"/>
<path d="M2275 3007 c-8 -19 -2 -31 13 -26 5 2 6 13 2 24 -7 19 -8 19 -15 2z"/>
<path d="M2167 2995 c-9 -22 8 -26 21 -4 10 15 10 19 -2 19 -8 0 -16 -7 -19
-15z"/>
<path d="M3363 2984 c-15 -15 -17 -44 -4 -44 8 0 25 49 19 55 -2 2 -9 -3 -15
-11z"/>
<path d="M437 2984 c-11 -12 -8 -52 5 -60 7 -5 9 -2 5 8 -3 9 0 21 6 27 7 7 8
14 1 21 -6 6 -13 7 -17 4z"/>
<path d="M1507 2969 c7 -7 15 -10 18 -7 3 3 -2 9 -12 12 -14 6 -15 5 -6 -5z"/>
<path d="M286 2953 c-11 -12 -6 -19 14 -19 11 0 20 3 20 7 0 10 -27 19 -34 12z"/>
<path d="M508 2949 c-10 -5 -18 -18 -18 -28 0 -11 -7 -21 -15 -25 -16 -6 -20
-43 -7 -62 10 -15 40 -25 47 -14 3 5 1 11 -5 15 -5 3 -10 13 -10 21 0 10 7 13
25 8 34 -8 32 4 -2 17 -16 6 -23 13 -17 17 9 6 29 63 22 62 -2 0 -11 -5 -20
-11z"/>
<path d="M339 2928 c-10 -22 -9 -31 2 -44 11 -14 11 -18 -6 -30 -17 -13 -23
-10 -57 26 -44 45 -48 47 -76 23 -29 -25 -33 -57 -7 -58 12 0 21 -9 25 -25 4
-17 8 -21 14 -12 4 6 18 12 32 12 13 0 24 6 24 13 1 6 8 0 16 -15 8 -16 18
-28 23 -28 14 0 30 -77 19 -88 -12 -12 -40 -4 -32 9 3 5 0 9 -5 9 -16 0 -13
-16 4 -34 9 -8 22 -13 29 -10 8 3 17 1 20 -5 4 -5 -2 -9 -11 -9 -10 0 -26 -3
-35 -6 -25 -11 -61 29 -52 57 4 12 11 25 16 28 7 4 6 9 0 13 -6 3 -12 0 -15
-6 -3 -10 -9 -10 -30 1 -14 7 -33 11 -41 8 -9 -4 -16 -2 -16 4 0 6 -15 -2 -34
-18 -35 -29 -49 -73 -21 -69 21 3 28 12 29 38 1 17 9 24 34 29 26 5 32 4 28
-8 -3 -7 1 -16 9 -19 11 -4 13 -18 10 -50 -3 -36 0 -48 17 -64 24 -22 21 -29
-11 -35 -11 -2 -26 -7 -31 -10 -6 -4 -7 1 -4 12 5 14 4 15 -4 4 -6 -8 -15 -10
-23 -6 -8 5 -6 -1 4 -13 11 -11 16 -26 12 -31 -3 -6 -1 -11 4 -11 6 0 11 -9
11 -20 0 -11 -6 -20 -12 -20 -11 0 -15 -25 -9 -71 3 -26 25 1 25 32 l1 34 64
-2 c40 -1 67 -6 73 -15 14 -19 2 -138 -17 -176 -10 -18 -14 -36 -11 -39 3 -4
6 -2 6 4 0 6 14 9 30 7 42 -5 55 28 34 89 -8 25 -14 67 -12 93 3 43 6 49 25
49 12 0 25 4 29 8 11 11 34 8 32 -4 -2 -6 3 -14 10 -16 10 -4 13 2 10 18 -2
16 2 24 12 24 9 0 14 -8 13 -21 -2 -17 4 -23 25 -27 31 -6 65 23 56 47 -3 9
-1 16 5 16 6 0 11 -17 11 -37 0 -21 4 -44 9 -52 11 -18 31 -5 31 20 0 22 -2
21 63 24 l47 2 0 -49 c0 -62 23 -66 36 -5 7 32 14 42 29 42 14 0 21 -8 23 -27
5 -39 32 -37 32 2 0 21 5 30 18 32 9 0 22 2 29 2 19 2 26 13 28 46 2 23 -1 30
-11 26 -8 -3 -14 -1 -14 4 0 6 4 10 10 10 5 0 7 7 4 15 -6 14 -8 14 -18 0 -8
-10 -15 -12 -26 -5 -13 9 -13 11 0 21 13 9 13 10 -2 6 -9 -3 -18 0 -21 6 -6
15 -4 33 3 30 3 -1 6 7 6 18 0 12 -7 19 -18 19 -10 0 -18 7 -18 17 0 14 -2 14
-20 -2 -27 -24 -25 -35 5 -35 14 0 25 -5 25 -11 0 -6 -9 -9 -19 -6 -20 5 -38
-18 -21 -28 4 -3 10 1 13 7 3 10 9 8 23 -4 13 -13 15 -21 7 -29 -7 -7 -13 -7
-17 0 -4 5 -12 8 -19 6 -7 -3 -20 9 -29 26 -16 27 -16 32 -3 53 15 22 14 24
-5 29 -25 6 -27 37 -2 32 9 -2 25 -6 34 -10 11 -4 22 2 34 20 9 14 14 28 10
32 -3 3 -6 1 -6 -5 0 -7 -10 -12 -21 -12 -17 0 -19 3 -10 13 13 16 5 28 -14
21 -7 -3 -16 0 -20 5 -9 16 -25 3 -18 -14 3 -9 -1 -15 -10 -15 -8 0 -17 6 -20
13 -2 6 -8 9 -12 4 -5 -4 -3 -13 3 -19 18 -18 15 -41 -4 -34 -8 3 -13 2 -10
-3 3 -5 -4 -11 -15 -14 -16 -4 -19 -11 -14 -29 11 -38 35 -88 43 -88 4 0 9
-12 10 -26 2 -21 -2 -24 -17 -19 -11 3 -22 1 -26 -5 -3 -5 -1 -10 4 -10 6 0
11 -7 11 -15 0 -8 -4 -15 -10 -15 -5 0 -10 5 -10 10 0 6 -6 10 -12 10 -17 0
-34 39 -33 75 0 22 5 30 18 29 20 -2 23 12 3 19 -16 6 -36 -11 -36 -30 0 -28
-19 -11 -26 21 -5 28 -9 32 -19 23 -10 -9 -9 -14 3 -23 18 -13 8 -54 -14 -54
-8 0 -14 -10 -14 -24 0 -27 -27 -38 -71 -29 -36 7 -41 42 -6 45 12 0 27 2 34
2 7 1 18 7 25 14 9 9 6 12 -15 12 -20 0 -27 5 -27 19 0 11 -8 22 -19 26 -14 4
-18 14 -16 46 2 39 -14 69 -36 69 -5 0 -20 -9 -31 -20 -21 -20 -21 -20 -2 -35
10 -8 14 -15 7 -15 -10 0 -43 26 -43 35 0 2 10 20 21 40 18 29 19 39 9 48 -10
10 -12 8 -6 -8 6 -16 5 -18 -5 -7 -15 14 -33 16 -24 2 7 -11 -8 -14 -18 -4 -6
7 12 45 28 56 6 4 2 13 -10 22 -17 12 -18 17 -7 28 11 11 17 9 33 -11 18 -22
21 -23 36 -9 20 20 7 41 -21 34 -14 -4 -26 1 -38 16 l-16 22 -13 -26z m111
-253 c0 -8 -4 -15 -10 -15 -5 0 -10 7 -10 15 0 8 5 15 10 15 6 0 10 -7 10 -15z
m-32 -17 c-7 -19 -38 -22 -38 -4 0 10 9 16 21 16 12 0 19 -5 17 -12z m338 -23
c17 -16 14 -18 -10 -9 -9 3 -16 10 -16 15 0 13 9 11 26 -6z m-445 -16 c20 -20
20 -21 2 -34 -23 -17 -43 -2 -43 31 0 30 14 30 41 3z m159 -34 c-19 -10 -25
-22 -25 -47 0 -23 -5 -34 -17 -36 -18 -4 -26 27 -11 42 4 4 8 15 8 24 0 9 11
19 25 23 40 11 47 9 20 -6z m320 -20 c0 -8 -4 -15 -9 -15 -13 0 -22 16 -14 24
11 11 23 6 23 -9z m-186 -10 c-4 -8 -10 -12 -15 -9 -14 8 -10 24 6 24 9 0 12
-6 9 -15z m254 -7 c-5 -15 -23 -11 -26 6 -2 11 2 14 13 10 9 -4 14 -11 13 -16z
m-34 -10 c9 -34 8 -38 -10 -38 -14 0 -14 3 -4 15 9 10 9 15 1 15 -6 0 -11 7
-11 15 0 23 17 18 24 -7z m-574 -8 c0 -5 -4 -10 -10 -10 -5 0 -10 5 -10 10 0
6 5 10 10 10 6 0 10 -4 10 -10z m603 -25 c-3 -9 -8 -14 -10 -11 -3 3 -2 9 2
15 9 16 15 13 8 -4z"/>
<path d="M2600 2924 c0 -14 -6 -24 -15 -24 -8 0 -19 -10 -26 -21 -9 -17 -13
-19 -20 -8 -16 25 -11 -13 6 -45 10 -20 12 -33 5 -41 -5 -6 -7 -15 -3 -19 13
-13 10 -51 -6 -75 -15 -24 -15 -24 9 -18 25 6 25 6 5 -11 -23 -19 -31 -102
-11 -114 8 -6 7 -11 -4 -18 -25 -16 -27 -12 -20 35 6 42 -4 62 -16 30 -4 -10
-15 -12 -35 -8 -24 4 -29 2 -29 -13 0 -13 -3 -15 -11 -7 -8 8 -8 17 0 31 8 15
7 23 -4 32 -12 10 -15 9 -15 -3 0 -9 -5 -19 -12 -23 -8 -5 -9 -2 -5 9 4 10 2
17 -5 17 -7 0 -7 4 -1 13 13 15 23 68 13 62 -13 -8 -30 21 -27 43 2 11 9 27
16 36 9 11 10 16 2 16 -6 0 -11 -4 -11 -9 0 -16 -58 -41 -63 -27 -2 6 -8 8
-12 4 -13 -12 3 -38 30 -48 18 -7 25 -17 25 -35 0 -23 -3 -25 -27 -19 -23 5
-26 4 -15 -7 20 -21 14 -29 -22 -29 -19 0 -38 -5 -41 -10 -4 -7 -13 -6 -26 1
-20 10 -20 11 -2 24 17 13 16 14 -12 15 -31 0 -72 34 -55 45 5 3 13 -2 18 -11
6 -10 12 -13 16 -6 3 6 2 13 -4 17 -5 3 -10 11 -10 17 0 6 6 6 15 -2 9 -7 19
-10 22 -6 4 4 1 11 -7 17 -12 7 -12 11 -2 17 7 5 10 22 8 40 -2 24 1 33 15 37
11 4 19 11 19 17 0 5 -6 8 -12 5 -18 -6 -68 25 -65 39 5 27 -57 10 -72 -19 -7
-12 -9 -14 -7 -4 4 12 0 17 -14 17 -24 0 -25 -8 -3 -32 15 -17 15 -18 0 -18
-10 0 -17 -7 -17 -16 0 -8 4 -13 9 -10 5 3 12 -1 15 -9 3 -8 9 -14 13 -13 8 3
13 -5 13 -23 0 -5 -4 -7 -10 -4 -12 7 -24 -39 -16 -60 3 -9 0 -15 -8 -15 -8 0
-16 -6 -19 -12 -4 -12 -3 -506 2 -678 2 -70 3 -73 16 -50 13 24 14 24 12 3 -1
-12 -7 -25 -14 -27 -7 -3 -13 -12 -13 -20 0 -10 6 -13 15 -10 8 4 15 1 15 -5
0 -6 -6 -11 -14 -11 -22 0 -37 -238 -16 -270 5 -8 10 -10 10 -5 0 6 5 2 11 -8
7 -13 14 -15 23 -8 7 6 17 6 26 1 11 -7 11 -12 2 -23 -10 -12 -10 -16 2 -20 8
-3 17 -1 20 6 3 8 5 8 5 1 1 -6 -6 -17 -14 -24 -8 -7 -15 -16 -15 -21 0 -14
28 -11 34 4 3 6 4 1 2 -13 -5 -22 -1 -25 26 -27 16 -1 36 -7 43 -13 10 -8 14
-7 17 2 4 11 8 11 20 0 14 -11 17 -9 23 18 8 35 24 35 36 2 7 -18 5 -22 -14
-22 -20 -1 -20 -2 6 -16 25 -13 31 -13 59 0 33 17 53 12 44 -10 -7 -17 29 -80
51 -88 21 -8 29 0 16 16 -13 16 -13 78 -1 78 5 0 7 4 3 9 -9 15 35 50 54 44 9
-4 13 -3 9 2 -4 4 -18 8 -30 9 -13 1 -22 7 -20 15 2 8 -3 11 -13 8 -19 -8 -19
0 -1 19 9 9 17 10 21 4 9 -14 23 -13 28 3 2 6 3 3 1 -8 -2 -13 5 -26 18 -34
19 -12 20 -11 14 5 -6 17 -6 17 14 -1 18 -16 20 -16 20 -2 0 10 4 17 9 17 5 0
9 -16 8 -35 -1 -40 -4 -42 -24 -17 -13 15 -13 15 -7 -8 6 -23 5 -24 -10 -11
-15 13 -19 13 -27 0 -13 -21 -11 -29 6 -23 8 4 15 1 15 -7 0 -7 -3 -9 -6 -6
-4 3 -15 2 -25 -4 -14 -7 -17 -6 -13 5 3 8 1 17 -5 21 -7 4 -14 -6 -17 -24 -4
-17 -10 -31 -15 -31 -5 0 -9 -4 -9 -10 0 -5 7 -10 15 -10 18 0 21 -45 4 -56
-11 -7 -59 14 -71 31 -4 5 -8 -2 -8 -17 0 -15 -5 -30 -10 -33 -6 -4 -9 -1 -8
6 2 7 -1 13 -7 14 -5 0 -16 4 -24 9 -20 13 -90 11 -103 -2 -6 -6 -17 -8 -26
-4 -11 4 -14 1 -9 -11 9 -23 -7 -30 -48 -18 -28 7 -35 7 -35 -5 0 -8 -9 -14
-20 -14 -14 0 -20 -7 -20 -24 0 -20 5 -23 30 -22 17 1 35 8 39 15 13 21 32 3
25 -24 -3 -12 -1 -26 6 -30 17 -10 25 2 11 19 -8 10 -9 16 -1 21 5 3 10 2 10
-4 0 -6 9 -19 21 -30 14 -13 19 -26 15 -39 -6 -17 -3 -19 15 -15 13 4 20 2 16
-4 -3 -5 0 -10 8 -10 8 0 15 9 15 19 0 23 37 38 103 43 44 4 47 2 42 -16 -7
-21 4 -24 83 -19 33 1 42 -2 42 -14 0 -9 4 -16 10 -16 5 0 7 7 4 15 -4 9 0 15
10 15 9 0 16 5 16 10 0 19 28 10 33 -10 5 -21 41 -28 52 -10 4 6 16 8 27 4 17
-5 20 -3 14 11 -5 14 -2 16 19 11 24 -6 25 -5 15 14 -6 12 -7 20 -1 20 9 0 41
55 41 71 0 4 -8 10 -17 12 -17 4 -17 5 0 6 23 1 22 21 -2 21 -11 0 -22 6 -24
13 -3 6 -6 -3 -6 -21 -1 -22 -5 -32 -13 -29 -7 2 -12 14 -10 27 2 19 0 21 -13
10 -8 -7 -15 -8 -15 -3 0 13 -46 33 -77 33 -18 0 -24 -4 -19 -15 4 -12 2 -13
-14 -3 -18 12 -18 22 1 24 5 1 14 2 19 3 13 1 13 31 1 31 -6 0 -13 -5 -16 -10
-3 -6 -12 -10 -18 -10 -7 0 -4 5 5 11 10 5 15 16 11 25 -5 14 -3 14 15 3 16
-10 23 -10 35 -1 12 10 18 9 31 -3 15 -15 16 -15 16 0 0 13 6 16 24 11 14 -3
28 -2 31 4 3 5 17 10 31 10 15 0 24 6 24 15 0 8 -6 15 -14 15 -17 0 -25 39
-15 66 6 15 8 12 8 -13 1 -31 20 -48 22 -20 1 6 5 1 9 -13 6 -18 8 -20 9 -7 1
23 36 69 45 60 3 -3 6 -1 6 5 0 7 -4 12 -9 12 -8 0 -23 52 -19 68 2 4 8 6 14
4 22 -5 35 110 14 123 -6 4 -10 14 -9 23 4 25 -11 112 -19 112 -4 0 -16 -7
-26 -15 -28 -21 -38 -19 -31 6 5 13 2 25 -6 31 -11 8 -10 9 4 4 9 -3 17 -1 17
4 0 11 -48 26 -70 21 -8 -1 -23 -10 -32 -18 -14 -12 -15 -19 -7 -30 7 -8 8
-13 1 -13 -5 0 -12 7 -16 15 -3 8 -12 12 -21 9 -11 -5 -14 -2 -8 12 4 12 3 15
-5 10 -7 -4 -12 -1 -12 9 0 11 5 15 16 11 8 -3 12 -2 9 4 -3 6 3 10 14 10 13
0 21 -7 21 -16 0 -14 2 -14 16 -3 10 8 12 15 5 17 -6 2 -11 9 -11 15 0 8 4 7
12 -1 18 -18 26 -15 26 14 0 19 -4 24 -16 19 -9 -3 -13 -3 -9 1 4 4 -1 12 -10
19 -11 8 -13 14 -5 19 7 4 12 3 12 -3 0 -6 6 -8 14 -5 7 3 16 -2 19 -10 4 -9
11 -16 16 -16 6 0 8 7 5 15 -4 11 1 15 17 15 47 0 62 24 31 46 -14 10 -13 15
9 41 14 16 29 28 35 26 11 -4 11 28 -1 70 -5 18 -3 33 6 43 7 9 9 18 3 22 -5
4 -10 18 -12 31 -1 17 2 22 13 17 19 -7 20 3 1 18 -7 6 -16 30 -19 54 -4 35
-2 42 9 38 17 -7 19 35 2 52 -7 7 -8 15 -1 24 5 7 10 23 11 36 1 17 -5 22 -24
22 -14 0 -24 6 -24 14 0 8 -5 16 -10 18 -6 2 -7 14 -1 33 10 37 -12 68 -27 38
-5 -10 -7 -24 -5 -31 3 -8 -1 -10 -11 -6 -18 7 -22 24 -6 24 6 0 10 9 10 21 0
16 -4 19 -22 13 -13 -3 -20 -3 -16 1 4 4 1 14 -7 21 -22 22 -2 72 35 87 9 3
10 6 3 6 -7 1 -13 7 -13 15 0 8 -4 17 -9 20 -5 4 -7 -4 -5 -16 2 -13 2 -17 -2
-10 -3 6 -12 12 -20 12 -8 0 -14 10 -14 21 0 16 5 20 20 16 11 -3 22 -1 25 3
7 11 -61 33 -75 25 -5 -3 -10 0 -10 9 0 8 6 16 13 19 9 4 9 7 -1 18 -11 12
-15 11 -26 -3 -9 -12 -16 -14 -29 -6 -10 5 -15 13 -12 17 2 5 -6 11 -20 13
-21 4 -25 1 -25 -18z m100 -95 c-8 -9 -18 -15 -22 -12 -5 2 -8 -1 -8 -7 0 -6
10 -8 25 -4 20 5 25 3 25 -14 0 -15 -5 -19 -20 -15 -11 3 -27 -1 -36 -8 -15
-12 -16 -11 -10 9 6 17 3 22 -9 22 -10 0 -15 7 -13 18 2 10 12 17 26 16 12 -1
22 3 22 7 0 5 -7 9 -15 9 -13 0 -14 4 -5 21 l12 21 22 -24 c20 -21 21 -25 6
-39z m-570 21 c0 -5 -5 -10 -11 -10 -5 0 -7 5 -4 10 3 6 8 10 11 10 2 0 4 -4
4 -10z m460 -30 c0 -5 -4 -10 -10 -10 -5 0 -10 5 -10 10 0 6 5 10 10 10 6 0
10 -4 10 -10z m160 -50 c0 -5 -5 -10 -11 -10 -5 0 -7 5 -4 10 3 6 8 10 11 10
2 0 4 -4 4 -10z m-624 -65 c-6 -24 -26 -35 -26 -15 0 6 5 10 11 10 5 0 8 4 5
9 -4 5 -3 17 1 27 9 25 17 0 9 -31z m604 15 c0 -5 -4 -10 -10 -10 -5 0 -10 5
-10 10 0 6 5 10 10 10 6 0 10 -4 10 -10z m-50 -30 c0 -5 -7 -10 -15 -10 -8 0
-15 5 -15 10 0 6 7 10 15 10 8 0 15 -4 15 -10z m70 -35 c0 -8 -4 -15 -9 -15
-13 0 -22 16 -14 24 11 11 23 6 23 -9z m-620 -15 c0 -5 -4 -10 -10 -10 -5 0
-10 5 -10 10 0 6 5 10 10 10 6 0 10 -4 10 -10z m230 -14 c0 -16 -18 -31 -27
-22 -8 8 5 36 17 36 5 0 10 -6 10 -14z m-175 -16 c3 -5 1 -10 -4 -10 -6 0 -11
5 -11 10 0 6 2 10 4 10 3 0 8 -4 11 -10z m135 6 c0 -3 -4 -8 -10 -11 -5 -3
-10 -1 -10 4 0 6 5 11 10 11 6 0 10 -2 10 -4z m370 -16 c0 -5 -2 -10 -4 -10
-3 0 -8 5 -11 10 -3 6 -1 10 4 10 6 0 11 -4 11 -10z m65 -9 c-3 -11 -1 -22 5
-26 17 -11 11 -25 -11 -25 -17 0 -20 4 -15 23 3 12 6 28 6 35 0 6 5 12 11 12
6 0 8 -8 4 -19z m53 -6 c-3 -3 -9 2 -12 12 -6 14 -5 15 5 6 7 -7 10 -15 7 -18z
m-428 5 c0 -5 -4 -10 -10 -10 -5 0 -10 5 -10 10 0 6 5 10 10 10 6 0 10 -4 10
-10z m-72 -20 c4 -12 3 -13 -10 -3 -8 7 -17 10 -20 7 -3 -3 -9 0 -13 6 -5 8 0
11 16 8 12 -1 25 -10 27 -18z m124 -31 c25 -5 33 -3 33 10 0 8 8 15 18 17 14
2 17 -2 11 -14 -3 -9 -6 -25 -6 -34 0 -9 -6 -19 -15 -22 -11 -5 -14 -2 -9 9 4
10 2 14 -6 9 -6 -4 -25 -8 -42 -10 -25 -3 -28 -2 -13 7 23 14 22 29 -3 29 -23
0 -26 10 -8 28 10 10 15 9 22 -8 5 -11 13 -21 18 -21z m-187 21 c3 -5 1 -10
-4 -10 -6 0 -11 5 -11 10 0 6 2 10 4 10 3 0 8 -4 11 -10z m-85 -25 c0 -8 -4
-15 -9 -15 -5 0 -11 7 -15 15 -3 9 0 15 9 15 8 0 15 -7 15 -15z m35 -5 c3 -5
-1 -10 -10 -10 -9 0 -13 5 -10 10 3 6 8 10 10 10 2 0 7 -4 10 -10z m92 -10
c17 -26 6 -55 -13 -39 -15 12 -20 59 -6 59 4 0 13 -9 19 -20z m423 -5 c-7 -8
-17 -12 -22 -9 -5 3 -1 12 9 19 22 17 30 11 13 -10z m40 -16 c0 -6 -4 -7 -10
-4 -5 3 -10 11 -10 16 0 6 5 7 10 4 6 -3 10 -11 10 -16z m70 6 c0 -8 -4 -15
-10 -15 -5 0 -10 7 -10 15 0 8 5 15 10 15 6 0 10 -7 10 -15z m-574 -23 c-9 -9
-37 8 -31 18 5 8 11 7 21 -1 8 -6 12 -14 10 -17z m288 3 c-7 -16 -30 -20 -38
-6 -7 11 4 21 25 21 12 0 16 -5 13 -15z m63 -17 c-3 -8 -6 -5 -6 6 -1 11 2 17
5 13 3 -3 4 -12 1 -19z m153 -9 c0 -5 -4 -9 -10 -9 -5 0 -10 7 -10 16 0 8 5
12 10 9 6 -3 10 -10 10 -16z m0 -29 c0 -5 -4 -10 -10 -10 -5 0 -10 5 -10 10 0
6 5 10 10 10 6 0 10 -4 10 -10z m-460 -90 c0 -5 -4 -10 -10 -10 -5 0 -10 5
-10 10 0 6 5 10 10 10 6 0 10 -4 10 -10z m-110 -16 c0 -8 -4 -12 -10 -9 -5 3
-10 10 -10 16 0 5 5 9 10 9 6 0 10 -7 10 -16z m465 -24 c3 -5 1 -10 -4 -10 -6
0 -11 5 -11 10 0 6 2 10 4 10 3 0 8 -4 11 -10z m125 -16 c0 -8 -4 -12 -10 -9
-5 3 -10 10 -10 16 0 5 5 9 10 9 6 0 10 -7 10 -16z m-370 -30 c0 -8 -4 -12
-10 -9 -5 3 -10 10 -10 16 0 5 5 9 10 9 6 0 10 -7 10 -16z m-160 2 c0 -3 -4
-8 -10 -11 -5 -3 -10 -1 -10 4 0 6 5 11 10 11 6 0 10 -2 10 -4z m440 -6 c0 -5
-4 -10 -10 -10 -5 0 -10 5 -10 10 0 6 5 10 10 10 6 0 10 -4 10 -10z m174 -5
c3 -8 1 -15 -4 -15 -6 0 -10 7 -10 15 0 8 2 15 4 15 2 0 6 -7 10 -15z m36 -4
c0 -6 -4 -12 -8 -15 -5 -3 -9 1 -9 9 0 8 4 15 9 15 4 0 8 -4 8 -9z m-435 -11
c3 -5 1 -10 -4 -10 -6 0 -11 5 -11 10 0 6 2 10 4 10 3 0 8 -4 11 -10z m-32
-14 c4 -10 1 -13 -9 -9 -7 3 -14 9 -14 14 0 14 17 10 23 -5z m192 -6 c3 -5 1
-10 -4 -10 -6 0 -11 5 -11 10 0 6 2 10 4 10 3 0 8 -4 11 -10z m32 -12 c-3 -8
-6 -5 -6 6 -1 11 2 17 5 13 3 -3 4 -12 1 -19z m201 -11 c6 3 12 0 12 -6 0 -19
-17 -20 -37 -1 -12 10 -24 16 -27 12 -4 -3 -4 1 0 11 6 16 7 16 23 -1 9 -10
22 -17 29 -15z m7 23 c3 -5 1 -10 -4 -10 -6 0 -11 5 -11 10 0 6 2 10 4 10 3 0
8 -4 11 -10z m-268 -20 c11 -16 10 -18 -1 -14 -15 6 -30 34 -18 34 4 0 13 -9
19 -20z m-42 -30 c3 -5 1 -10 -4 -10 -6 0 -11 5 -11 10 0 6 2 10 4 10 3 0 8
-4 11 -10z m355 6 c0 -3 -4 -8 -10 -11 -5 -3 -10 -1 -10 4 0 6 5 11 10 11 6 0
10 -2 10 -4z m-205 -16 c3 -5 1 -10 -4 -10 -6 0 -11 5 -11 10 0 6 2 10 4 10 3
0 8 -4 11 -10z m135 0 c0 -5 -7 -10 -16 -10 -8 0 -12 5 -9 10 3 6 10 10 16 10
5 0 9 -4 9 -10z m-570 -30 c0 -5 -4 -10 -10 -10 -5 0 -10 5 -10 10 0 6 5 10
10 10 6 0 10 -4 10 -10z m460 -16 c0 -8 -5 -12 -10 -9 -6 4 -8 11 -5 16 9 14
15 11 15 -7z m-300 -14 c0 -5 -4 -10 -10 -10 -5 0 -10 5 -10 10 0 6 5 10 10
10 6 0 10 -4 10 -10z m370 -10 c0 -5 -4 -10 -9 -10 -6 0 -13 5 -16 10 -3 6 1
10 9 10 9 0 16 -4 16 -10z m-210 -20 c0 -5 -4 -10 -10 -10 -5 0 -10 5 -10 10
0 6 5 10 10 10 6 0 10 -4 10 -10z m270 -20 c0 -5 -5 -10 -11 -10 -5 0 -7 5 -4
10 3 6 8 10 11 10 2 0 4 -4 4 -10z m-460 -10 c0 -5 -4 -10 -10 -10 -5 0 -10 5
-10 10 0 6 5 10 10 10 6 0 10 -4 10 -10z m280 0 c0 -5 -4 -10 -9 -10 -6 0 -13
5 -16 10 -3 6 1 10 9 10 9 0 16 -4 16 -10z m-210 -10 c0 -5 -4 -10 -10 -10 -5
0 -10 5 -10 10 0 6 5 10 10 10 6 0 10 -4 10 -10z m357 4 c-3 -3 -12 -4 -19 -1
-8 3 -5 6 6 6 11 1 17 -2 13 -5z m-362 -42 c-3 -8 -8 -31 -11 -53 -5 -29 -11
-39 -25 -39 -11 0 -19 2 -19 4 0 2 -3 12 -7 21 -5 14 -2 16 15 10 13 -4 22 -2
22 4 0 6 -7 11 -15 11 -10 0 -15 7 -13 18 2 9 -2 16 -9 15 -6 -1 -14 4 -17 12
-3 9 0 12 10 8 8 -3 14 1 14 10 0 13 5 13 30 4 19 -7 28 -17 25 -25z m50 28
c3 -5 1 -10 -4 -10 -6 0 -11 5 -11 10 0 6 2 10 4 10 3 0 8 -4 11 -10z m135 6
c0 -3 -4 -8 -10 -11 -5 -3 -10 -1 -10 4 0 6 5 11 10 11 6 0 10 -2 10 -4z m-50
-16 c0 -5 -4 -10 -10 -10 -5 0 -10 5 -10 10 0 6 5 10 10 10 6 0 10 -4 10 -10z
m-340 -30 c0 -5 -2 -10 -4 -10 -3 0 -8 5 -11 10 -3 6 -1 10 4 10 6 0 11 -4 11
-10z m240 -14 c0 -14 7 -26 18 -29 9 -2 25 -8 35 -12 12 -5 17 -3 15 5 -4 19
19 23 25 5 4 -8 2 -15 -3 -15 -6 0 -10 -7 -10 -16 0 -8 5 -12 10 -9 6 3 10 -1
10 -9 0 -18 -2 -19 -24 -10 -8 3 -12 12 -9 21 4 10 2 14 -4 10 -6 -4 -14 -1
-17 5 -5 10 -7 10 -12 1 -8 -18 -27 -16 -21 1 6 15 -19 30 -34 20 -5 -3 -9 0
-9 5 0 6 4 11 9 11 5 0 7 9 4 20 -3 11 0 20 6 20 6 0 11 -11 11 -24z m170 10
c0 -2 -7 -6 -15 -10 -8 -3 -15 -1 -15 4 0 6 7 10 15 10 8 0 15 -2 15 -4z m50
-11 c0 -8 -4 -15 -10 -15 -5 0 -10 7 -10 15 0 8 5 15 10 15 6 0 10 -7 10 -15z
m-377 -8 c3 -8 2 -29 -2 -48 l-7 -34 -5 32 c-3 18 -2 30 3 27 4 -3 8 0 8 5 0
6 -7 11 -16 11 -8 0 -12 5 -9 10 9 14 22 12 28 -3z m48 0 c-1 -12 -15 -9 -19
4 -3 6 1 10 8 8 6 -3 11 -8 11 -12z m149 3 c0 -5 -7 -10 -15 -10 -8 0 -15 5
-15 10 0 6 7 10 15 10 8 0 15 -4 15 -10z m111 -32 c8 -15 8 -19 0 -14 -6 4
-11 0 -11 -11 0 -15 -2 -15 -9 -3 -6 8 -8 17 -5 21 2 4 0 10 -6 14 -5 3 -10
10 -10 15 0 15 30 -1 41 -22z m-361 1 c0 -5 -4 -9 -10 -9 -5 0 -10 7 -10 16 0
8 5 12 10 9 6 -3 10 -10 10 -16z m-130 -3 c0 -24 -26 -38 -40 -22 -6 9 -9 20
-5 26 9 15 45 12 45 -4z m60 -25 c0 -6 -4 -13 -10 -16 -5 -3 -10 1 -10 9 0 9
5 16 10 16 6 0 10 -4 10 -9z m264 -7 c10 -25 7 -46 -5 -39 -6 4 -8 13 -5 20 2
7 -1 18 -7 24 -8 8 -8 11 0 11 6 0 14 -7 17 -16z m-174 -14 c0 -5 -5 -10 -11
-10 -5 0 -7 5 -4 10 3 6 8 10 11 10 2 0 4 -4 4 -10z m-74 -47 c-4 -4 -11 -1
-16 7 -16 25 -11 35 7 17 9 -9 13 -20 9 -24z m204 27 c0 -5 -2 -10 -4 -10 -3
0 -8 5 -11 10 -3 6 -1 10 4 10 6 0 11 -4 11 -10z m159 -15 c7 3 8 0 5 -9 -7
-19 -16 -20 -32 -4 -17 17 -15 33 3 18 8 -6 19 -9 24 -5z m171 -11 c0 -8 -5
-12 -10 -9 -6 4 -8 11 -5 16 9 14 15 11 15 -7z m-500 -4 c0 -5 -5 -10 -11 -10
-5 0 -7 5 -4 10 3 6 8 10 11 10 2 0 4 -4 4 -10z m622 -38 c-8 -2 -10 -14 -6
-30 5 -21 4 -25 -6 -15 -16 15 -5 67 12 57 9 -6 9 -9 0 -12z m-529 -37 c4 -8
2 -17 -2 -20 -5 -2 -11 4 -14 15 -6 23 8 27 16 5z m-123 -5 c0 -5 -4 -10 -10
-10 -5 0 -10 5 -10 10 0 6 5 10 10 10 6 0 10 -4 10 -10z m545 -10 c3 -5 1 -10
-4 -10 -6 0 -11 5 -11 10 0 6 2 10 4 10 3 0 8 -4 11 -10z m-660 -20 c3 -5 1
-10 -4 -10 -6 0 -11 5 -11 10 0 6 2 10 4 10 3 0 8 -4 11 -10z m785 -27 c0 -8
-5 -13 -12 -11 -18 6 -21 25 -3 25 8 0 15 -7 15 -14z m-297 -87 c4 -10 1 -13
-8 -9 -8 3 -12 9 -9 14 7 12 11 11 17 -5z m-120 -14 c-6 -4 -11 -14 -11 -22 2
-36 -3 -49 -16 -44 -11 4 -13 0 -9 -15 4 -16 11 -20 24 -16 11 4 19 2 19 -4 0
-6 -7 -11 -15 -11 -8 0 -15 -4 -15 -10 0 -5 4 -10 9 -10 14 0 7 -48 -9 -63
-10 -10 -11 -7 -6 15 5 21 2 30 -13 37 -21 12 -22 60 -2 85 7 8 9 25 5 42 -6
23 -4 26 9 21 9 -3 19 -2 23 4 3 6 9 8 12 4 4 -3 1 -9 -5 -13z m-211 -7 c0 -5
-5 -11 -11 -13 -6 -2 -11 4 -11 13 0 9 5 15 11 13 6 -2 11 -8 11 -13z m72 6
c9 -14 60 -20 74 -9 14 12 16 3 2 -22 -5 -10 -11 -31 -12 -48 -1 -17 -6 -28
-10 -25 -5 2 -6 13 -3 23 5 15 0 18 -33 16 -33 -2 -38 1 -34 16 5 22 18 23 30
3 5 -10 15 -13 25 -9 23 8 1 29 -41 39 -37 8 -53 25 -23 25 11 0 22 -4 25 -9z
m-117 -45 c-33 -25 -14 -46 41 -46 17 0 23 -3 16 -10 -15 -15 -69 -1 -83 23
-12 18 -10 22 10 38 13 10 26 15 29 12 3 -2 -3 -10 -13 -17z m78 14 c3 -5 2
-10 -4 -10 -5 0 -13 5 -16 10 -3 6 -2 10 4 10 5 0 13 -4 16 -10z m315 -10 c0
-5 -4 -10 -10 -10 -5 0 -10 5 -10 10 0 6 5 10 10 10 6 0 10 -4 10 -10z m-334
-11 c3 -6 2 -15 -2 -19 -12 -12 -38 5 -30 19 9 14 23 14 32 0z m408 -11 c-5
-7 2 -9 19 -4 22 5 25 3 22 -19 -1 -14 2 -25 6 -25 5 0 9 -7 9 -15 0 -8 -4
-15 -10 -15 -5 0 -10 4 -10 9 0 5 -8 17 -17 27 -17 17 -18 16 -23 -12 -6 -34
-40 -47 -40 -15 0 12 3 20 8 19 4 -2 8 2 10 7 1 6 -3 10 -10 10 -6 0 -12 10
-13 22 -1 18 1 20 12 12 9 -9 14 -7 19 5 3 9 10 13 15 10 5 -3 6 -10 3 -16z
m176 -14 c0 -8 -4 -12 -10 -9 -5 3 -10 10 -10 16 0 5 5 9 10 9 6 0 10 -7 10
-16z m-85 -34 c3 -5 1 -10 -4 -10 -6 0 -11 5 -11 10 0 6 2 10 4 10 3 0 8 -4
11 -10z m-141 -46 c3 -8 2 -12 -4 -9 -6 3 -10 10 -10 16 0 14 7 11 14 -7z
m-47 -36 c-3 -8 -6 -5 -6 6 -1 11 2 17 5 13 3 -3 4 -12 1 -19z m-127 -148 c0
-5 -4 -10 -10 -10 -5 0 -10 5 -10 10 0 6 5 10 10 10 6 0 10 -4 10 -10z m-66
-33 c16 -12 14 -13 -18 -9 -20 2 -33 8 -30 13 8 13 27 11 48 -4z m316 -3 c0
-8 4 -13 9 -10 5 3 11 -3 14 -14 8 -33 -20 -23 -32 10 -6 18 -6 30 0 30 5 0 9
-7 9 -16z m-430 2 c0 -3 -4 -8 -10 -11 -5 -3 -10 -1 -10 4 0 6 5 11 10 11 6 0
10 -2 10 -4z m340 -6 c12 -8 11 -10 -7 -10 -13 0 -23 5 -23 10 0 13 11 13 30
0z m-310 -50 c0 -5 -4 -10 -10 -10 -5 0 -10 5 -10 10 0 6 5 10 10 10 6 0 10
-4 10 -10z"/>
<path d="M2125 1910 c-3 -5 -1 -10 4 -10 6 0 11 5 11 10 0 6 -2 10 -4 10 -3 0
-8 -4 -11 -10z"/>
<path d="M1362 2928 c2 -5 8 -9 13 -9 5 0 11 4 13 9 1 5 -4 9 -13 9 -9 0 -14
-4 -13 -9z"/>
<path d="M2121 2924 c0 -11 3 -14 6 -6 3 7 2 16 -1 19 -3 4 -6 -2 -5 -13z"/>
<path d="M2196 2931 c-4 -7 -5 -15 -2 -18 9 -9 19 4 14 18 -4 11 -6 11 -12 0z"/>
<path d="M2408 2933 c6 -2 18 -2 25 0 6 3 1 5 -13 5 -14 0 -19 -2 -12 -5z"/>
<path d="M280 2906 c0 -15 18 -31 26 -23 7 7 -7 37 -17 37 -5 0 -9 -6 -9 -14z"/>
<path d="M1450 2910 c0 -12 28 -21 35 -11 2 5 -4 11 -15 14 -11 3 -20 2 -20
-3z"/>
<path d="M2090 2911 c0 -6 5 -13 10 -16 6 -3 10 1 10 9 0 9 -4 16 -10 16 -5 0
-10 -4 -10 -9z"/>
<path d="M3350 2918 c-9 -96 -8 -158 3 -158 8 0 12 13 11 37 -1 21 2 46 8 56
7 13 7 22 0 29 -6 6 -8 17 -5 24 3 8 0 14 -6 14 -6 0 -11 -1 -11 -2z"/>
<path d="M710 2900 c0 -5 5 -10 10 -10 6 0 10 5 10 10 0 6 -4 10 -10 10 -5 0
-10 -4 -10 -10z"/>
<path d="M1254 2899 c-3 -5 -22 -16 -42 -25 -34 -14 -35 -17 -19 -28 24 -18
21 -28 -5 -24 -20 3 -23 -1 -21 -26 1 -16 -2 -35 -8 -42 -19 -23 8 -24 60 -3
57 24 57 49 -1 42 l-33 -4 25 20 c20 17 22 23 11 30 -23 15 -2 33 30 26 22 -5
29 -3 29 9 0 19 16 21 24 4 5 -10 7 -10 12 -1 3 7 5 16 5 20 -1 11 -60 12 -67
2z"/>
<path d="M2400 2899 c0 -5 5 -7 10 -4 6 3 10 8 10 11 0 2 -4 4 -10 4 -5 0 -10
-5 -10 -11z"/>
<path d="M767 2865 c-5 -10 0 -15 14 -15 12 0 19 5 17 12 -6 18 -25 20 -31 3z"/>
<path d="M2260 2853 c1 -39 26 -71 43 -54 10 10 8 15 -6 26 -13 9 -17 20 -12
34 5 15 2 21 -9 21 -11 0 -16 -9 -16 -27z"/>
<path d="M2495 2859 c-4 -6 -5 -12 -2 -15 2 -3 7 2 10 11 7 17 1 20 -8 4z"/>
<path d="M1400 2850 c0 -5 5 -10 10 -10 6 0 10 5 10 10 0 6 -4 10 -10 10 -5 0
-10 -4 -10 -10z"/>
<path d="M1505 2850 c-3 -5 -1 -10 4 -10 6 0 11 5 11 10 0 6 -2 10 -4 10 -3 0
-8 -4 -11 -10z"/>
<path d="M3188 2852 c-20 -4 -26 -66 -8 -77 7 -4 7 -11 2 -18 -9 -12 -11 -24
-13 -79 -1 -36 -14 -44 -35 -19 -13 15 -20 16 -29 8 -15 -14 -1 -37 21 -37 8
0 14 -5 14 -11 0 -5 -4 -7 -10 -4 -18 11 -11 -14 8 -25 14 -10 14 -11 1 -6 -9
2 -26 -4 -37 -14 -11 -10 -23 -16 -26 -12 -4 3 -11 0 -16 -8 -7 -10 -10 -11
-10 -2 0 6 -4 12 -10 12 -6 0 -10 -40 -9 -102 0 -80 3 -97 10 -76 10 25 14 27
60 24 27 -2 49 0 49 6 0 5 5 6 10 3 6 -4 10 -29 9 -56 -3 -57 4 -68 27 -45 10
11 14 26 11 43 -3 16 1 32 9 40 15 16 19 37 5 29 -10 -6 -25 24 -16 32 3 3 11
-1 18 -9 28 -34 46 -42 63 -28 9 8 18 9 22 3 4 -5 21 -10 37 -11 17 -1 66 -4
110 -6 44 -2 95 -8 113 -12 27 -6 31 -5 26 9 -3 9 -10 16 -15 16 -5 0 -9 5 -9
11 0 6 8 9 18 7 9 -2 16 -10 14 -16 -1 -7 2 -12 8 -12 5 0 10 -16 10 -35 0
-19 5 -35 11 -35 6 0 9 21 6 55 -2 30 0 55 4 55 5 0 9 -9 9 -20 0 -13 7 -20
19 -20 14 0 21 -8 23 -25 2 -14 7 -24 13 -23 5 2 8 13 6 26 -2 20 1 22 25 18
15 -3 32 -12 36 -21 5 -8 16 -15 25 -15 15 0 15 18 -2 65 -5 17 -3 16 16 -5
l22 -25 -6 23 c-4 17 -2 22 8 18 11 -4 12 0 6 17 -9 24 -11 31 -11 47 0 5 -7
7 -15 4 -8 -4 -15 -2 -15 4 0 5 8 13 18 17 16 6 16 7 -1 17 -14 7 -23 6 -37
-7 -11 -10 -26 -15 -34 -12 -8 3 -20 -1 -27 -9 -19 -23 -22 -9 -5 19 15 22 15
26 1 37 -13 11 -15 9 -15 -14 0 -32 -7 -32 -36 -5 -21 20 -22 23 -8 44 13 20
13 23 -1 29 -11 4 -14 12 -10 27 5 14 3 19 -4 15 -6 -4 -20 -2 -32 5 l-22 11
21 -33 c18 -30 20 -50 13 -114 -1 -5 -13 4 -27 20 -14 17 -23 23 -20 13 2 -9
-2 -24 -10 -35 -15 -17 -15 -17 -11 3 4 18 0 22 -18 19 -13 -1 -29 2 -37 6 -7
5 -20 1 -31 -9 -11 -9 -22 -16 -26 -14 -3 1 -7 -6 -9 -18 -2 -11 -8 -20 -13
-20 -5 0 -9 -6 -9 -14 0 -8 -7 -16 -15 -20 -9 -3 -15 0 -15 9 0 8 4 15 9 15
13 0 20 25 14 49 -4 16 -9 19 -18 11 -9 -8 -15 -8 -20 0 -3 5 -1 10 4 10 14 0
14 47 1 52 -14 4 0 48 15 48 14 0 29 29 20 38 -3 3 -5 0 -5 -6 0 -7 -13 -12
-29 -12 -23 0 -29 -4 -29 -22 -3 -112 -9 -131 -36 -109 -7 6 -16 8 -19 4 -4
-3 -7 1 -7 11 0 13 -4 15 -19 6 -11 -5 -23 -19 -26 -30 -3 -11 -11 -20 -16
-20 -13 0 -1 39 17 57 7 7 18 13 25 13 11 0 11 2 0 13 -10 10 -15 9 -25 -5 -7
-10 -18 -18 -25 -18 -12 0 -15 13 -4 24 4 3 8 16 10 28 2 12 11 30 20 40 18
20 11 23 -17 8 -28 -15 -32 2 -10 43 25 45 25 60 2 29 l-17 -22 1 32 c0 18 4
41 8 50 11 23 5 34 -16 30z m4 -332 c29 0 12 -15 -17 -15 -17 -1 -26 6 -30 22
-3 13 -10 21 -15 18 -6 -3 -10 -1 -10 5 0 7 7 9 16 6 11 -4 18 1 22 16 6 19 8
16 10 -14 3 -31 7 -38 24 -38z m88 30 c0 -5 -4 -10 -9 -10 -6 0 -13 5 -16 10
-3 6 1 10 9 10 9 0 16 -4 16 -10z m380 0 c0 -5 -2 -10 -4 -10 -3 0 -8 5 -11
10 -3 6 -1 10 4 10 6 0 11 -4 11 -10z m-350 -16 c0 -8 -4 -12 -10 -9 -5 3 -10
10 -10 16 0 5 5 9 10 9 6 0 10 -7 10 -16z m-235 -34 c3 -5 -1 -10 -9 -10 -9 0
-16 5 -16 10 0 6 4 10 9 10 6 0 13 -4 16 -10z m525 6 c0 -9 -40 -13 -46 -5 -3
5 6 9 20 9 14 0 26 -2 26 -4z m125 -15 c-3 -6 -11 -11 -17 -11 -6 0 -6 6 2 15
14 17 26 13 15 -4z m-505 -11 c0 -5 -7 -7 -15 -4 -8 4 -15 8 -15 10 0 2 7 4
15 4 8 0 15 -4 15 -10z m541 -17 c-12 -20 -14 -14 -5 12 4 9 9 14 11 11 3 -2
0 -13 -6 -23z m-481 -23 c0 -5 -4 -10 -10 -10 -5 0 -10 5 -10 10 0 6 5 10 10
10 6 0 10 -4 10 -10z m120 0 c0 -5 -2 -10 -4 -10 -3 0 -8 5 -11 10 -3 6 -1 10
4 10 6 0 11 -4 11 -10z"/>
<path d="M1350 2830 c0 -5 5 -10 10 -10 6 0 10 5 10 10 0 6 -4 10 -10 10 -5 0
-10 -4 -10 -10z"/>
<path d="M1568 2819 c6 -7 12 -24 12 -37 0 -20 -4 -23 -21 -19 -12 3 -22 0
-26 -9 -4 -11 -10 -9 -29 11 -26 28 -60 35 -50 10 3 -9 0 -15 -8 -15 -8 0 -16
9 -19 20 -4 14 -12 19 -31 18 -14 -1 -26 -8 -26 -15 0 -16 -47 -17 -52 -2 -2
6 -12 10 -23 8 -17 -4 -14 -9 18 -40 34 -33 36 -37 17 -42 -11 -3 -20 0 -20 5
0 6 -6 6 -15 -2 -8 -6 -19 -9 -25 -5 -5 3 -10 1 -10 -5 0 -7 -7 -10 -15 -6 -8
3 -14 0 -12 -6 5 -25 -24 -17 -34 9 -10 27 -11 27 -24 9 -8 -10 -17 -24 -20
-30 -3 -8 -7 -8 -11 1 -3 7 -12 9 -20 6 -9 -3 -14 2 -15 13 0 16 -2 15 -12 -5
-9 -19 -8 -26 6 -36 24 -17 21 -28 -3 -15 -16 8 -20 8 -20 -3 0 -8 9 -17 21
-20 12 -3 18 -10 15 -16 -4 -6 -13 -8 -21 -4 -12 4 -15 -6 -15 -55 0 -53 3
-62 21 -67 12 -4 24 -2 28 4 5 8 13 6 24 -7 26 -29 9 -159 -19 -148 -8 3 -14
-1 -14 -8 0 -8 -9 -16 -20 -19 -12 -3 -20 -14 -20 -25 0 -29 11 -53 21 -46 5
3 10 -3 10 -13 3 -25 6 -46 9 -58 1 -5 2 -14 1 -18 -1 -5 8 -11 20 -14 16 -4
17 -8 7 -14 -9 -6 -6 -9 12 -10 14 -1 29 -1 34 0 4 1 14 -4 22 -10 18 -15 1
-39 -27 -39 -14 0 -18 -6 -16 -22 2 -12 9 -24 15 -26 7 -2 12 -10 12 -18 0
-11 -5 -10 -21 5 -25 23 -49 18 -42 -10 4 -14 1 -18 -9 -14 -8 3 -21 -2 -29
-11 -11 -14 -15 -79 -17 -332 -2 -174 1 -319 6 -324 15 -15 44 3 39 23 -6 22
22 26 41 7 9 -9 12 -6 12 14 0 15 8 34 17 44 16 15 17 15 24 -2 8 -24 1 -33
-11 -14 -6 8 -10 11 -10 5 0 -20 17 -38 24 -26 4 6 13 8 19 4 7 -4 6 1 -2 10
-18 23 -5 35 20 18 19 -11 20 -10 15 7 -5 15 -1 18 16 18 13 -1 29 -8 35 -16
11 -13 14 -12 19 8 5 19 11 22 33 17 19 -4 34 0 51 15 26 22 51 25 81 10 15
-8 19 -7 19 5 0 8 7 15 15 15 22 0 30 -4 28 -12 -5 -13 9 -9 26 6 9 8 43 17
76 19 33 3 75 8 93 12 21 5 32 4 32 -3 0 -13 68 -13 76 0 3 4 17 8 31 8 20 0
24 4 20 20 -3 10 -1 20 5 22 12 4 24 158 12 158 -5 0 -11 12 -12 26 -1 15 -7
32 -12 39 -6 7 -8 20 -4 29 3 9 2 16 -4 16 -6 0 -8 8 -5 19 3 10 -2 21 -10 24
-21 8 -57 -3 -57 -17 0 -6 -8 -12 -18 -13 -10 -1 -19 5 -19 13 0 8 7 13 16 12
12 -2 15 4 13 25 -3 24 0 27 25 26 l28 -1 -25 -8 c-24 -8 -24 -8 -2 -9 12 -1
25 -1 29 -1 4 0 8 13 9 30 1 20 -4 30 -13 30 -8 0 -11 -4 -8 -10 3 -5 -3 -10
-14 -10 -26 0 -26 1 -2 29 11 13 24 20 30 17 5 -3 7 3 4 14 -6 23 -23 27 -23
5 0 -8 -7 -15 -16 -15 -12 0 -15 6 -10 24 3 14 1 28 -4 31 -6 4 -10 3 -9 -2 1
-4 1 -15 0 -23 -1 -12 -4 -12 -12 3 -14 23 -39 22 -39 -3 0 -11 -4 -20 -9 -20
-5 0 -4 -15 2 -35 7 -23 16 -35 29 -35 10 0 18 -4 18 -9 0 -18 -12 -41 -22
-41 -5 0 -16 -7 -24 -15 -20 -20 -26 -19 -52 5 -15 15 -29 19 -47 14 -18 -4
-25 -2 -25 9 0 8 -9 17 -21 20 -11 3 -19 11 -18 19 3 22 -1 38 -8 38 -15 0 -8
-71 7 -81 13 -9 13 -10 -2 -6 -10 4 -18 -1 -21 -14 -5 -20 -6 -20 -34 -2 -15
9 -32 22 -36 28 -5 6 -7 3 -3 -7 7 -24 -32 -47 -45 -27 -12 19 -11 33 2 46 7
7 9 23 5 38 -5 21 -12 26 -27 22 -14 -4 -19 -1 -17 10 2 9 -3 18 -11 21 -10 3
-12 -2 -7 -22 3 -14 2 -26 -3 -26 -5 0 -12 -10 -16 -22 -6 -20 -8 -21 -12 -5
-3 10 0 24 6 31 6 8 9 21 5 30 -3 9 -1 23 6 31 9 10 9 15 1 15 -6 0 -11 -4
-11 -9 0 -15 -72 -21 -91 -7 -11 7 -16 16 -12 19 10 11 25 8 18 -3 -3 -5 1
-10 9 -10 10 0 13 6 9 16 -3 9 0 20 7 24 8 5 2 10 -19 15 -25 5 -31 11 -26 26
4 10 2 19 -4 19 -5 0 -11 -7 -13 -15 -2 -12 -9 -10 -30 10 -31 29 -37 51 -11
41 9 -4 20 -1 24 6 7 10 11 10 21 0 19 -19 41 -15 35 8 -6 23 8 27 17 4 3 -8
-1 -26 -10 -39 -9 -13 -13 -29 -9 -35 5 -8 11 -4 19 11 6 12 20 27 31 33 11 6
33 21 49 34 16 13 35 21 42 18 8 -3 14 1 14 10 0 8 5 12 10 9 6 -4 17 -2 24 4
8 7 18 11 22 9 5 -1 20 4 33 11 12 7 32 11 42 8 16 -4 19 -2 13 15 -5 18 -2
19 37 17 33 -3 43 0 48 15 4 9 10 17 14 17 20 -2 27 0 27 8 0 5 -9 7 -20 4
-13 -3 -26 1 -33 10 -11 14 -54 22 -99 18 -10 0 -18 -8 -18 -16 0 -10 -10 -15
-26 -15 -21 0 -25 4 -21 20 7 29 -11 36 -22 8 -6 -13 -10 -19 -10 -14 -1 5 -8
3 -16 -4 -8 -7 -15 -9 -15 -5 0 4 -9 -3 -19 -16 -16 -19 -22 -22 -32 -11 -11
10 -9 12 6 12 17 0 17 1 3 13 -13 9 -17 33 -20 97 l-3 85 98 0 c78 1 100 -2
107 -15 8 -13 9 -13 10 1 0 17 34 32 45 21 3 -4 21 -5 40 -3 29 2 35 -1 40
-21 3 -13 5 -38 3 -57 -2 -22 2 -36 11 -39 10 -3 12 7 11 44 -4 70 -3 71 28
68 15 -1 33 -2 41 -3 10 -1 12 -12 8 -48 -4 -32 -2 -56 7 -73 12 -21 12 -26
-2 -36 -9 -7 -13 -18 -9 -28 6 -15 11 -14 42 10 19 14 35 31 35 37 0 7 -4 7
-12 -1 -17 -17 -28 -15 -28 7 0 11 -3 22 -7 24 -5 3 -6 30 -5 61 2 31 7 54 12
51 4 -3 22 -2 40 1 29 6 31 9 26 37 -8 38 -15 45 -26 27 -8 -13 -10 -12 -10 3
0 22 -18 22 -22 0 -2 -10 -4 11 -5 46 -1 43 4 72 14 88 8 13 11 23 7 23 -5 0
-2 5 6 10 12 8 11 10 -7 10 -13 0 -23 5 -23 11 0 6 -10 9 -22 7 -19 -2 -24
-12 -31 -55 -5 -34 -13 -53 -22 -53 -7 0 -22 -3 -32 -7 -15 -6 -16 -4 -6 9 7
8 9 18 5 22 -4 4 0 6 8 4 9 -2 13 3 11 12 -2 8 -4 25 -4 38 l1 23 -32 -25
c-18 -14 -31 -33 -30 -45 0 -12 -2 -21 -6 -21 -3 0 -30 23 -59 52 -48 47 -52
54 -49 92 2 34 0 41 -17 44 -16 3 -18 1 -7 -9z m-73 -78 c8 0 15 -6 15 -12 0
-7 -11 -9 -30 -5 -22 4 -30 2 -30 -9 0 -8 5 -15 11 -15 19 0 39 -33 27 -47
-15 -19 -60 5 -53 28 4 12 -1 22 -15 29 -15 8 -18 15 -11 23 8 11 32 13 86 8z
m105 -40 c0 -11 -4 -11 -18 2 -22 20 -39 23 -25 5 6 -7 11 -30 11 -51 1 -20 6
-46 12 -56 14 -28 12 -38 -3 -16 -10 13 -16 15 -21 6 -4 -6 -2 -18 4 -26 18
-22 5 -45 -20 -38 -16 4 -18 8 -9 14 7 4 17 5 22 2 5 -3 3 4 -5 16 -7 12 -17
21 -21 21 -5 0 -6 9 -2 20 3 10 1 37 -6 60 -9 31 -10 43 -1 52 9 9 12 6 12
-15 0 -15 5 -27 10 -27 6 0 8 16 5 39 l-5 40 30 -17 c16 -9 30 -23 30 -31z
m-200 -2 c0 -5 -4 -9 -10 -9 -5 0 -10 7 -10 16 0 8 5 12 10 9 6 -3 10 -10 10
-16z m-60 -19 c0 -5 -4 -10 -10 -10 -5 0 -10 5 -10 10 0 6 5 10 10 10 6 0 10
-4 10 -10z m70 -20 c-10 -7 -11 -10 -2 -10 6 0 12 -4 12 -10 0 -5 -7 -10 -15
-10 -8 0 -15 -7 -15 -16 0 -8 -4 -13 -9 -10 -5 3 -7 16 -4 29 6 23 33 50 42
41 3 -3 -1 -9 -9 -14z m241 3 c16 -10 29 -26 29 -36 0 -12 5 -17 14 -14 10 4
16 -5 21 -30 3 -19 4 -38 1 -41 -3 -3 -6 -1 -6 4 0 5 -8 10 -19 10 -11 0 -17
-5 -14 -13 3 -9 -4 -13 -21 -13 -29 0 -33 14 -11 36 18 18 20 60 4 70 -8 4 -9
0 -4 -15 5 -17 2 -21 -14 -21 -24 0 -27 10 -9 28 9 9 9 15 0 24 -13 13 -16 28
-6 28 3 0 19 -8 35 -17z m-368 -12 c17 -17 -7 -38 -26 -23 -11 9 -14 8 -14 -3
0 -8 5 -15 11 -15 6 0 16 -11 22 -24 9 -19 8 -23 -5 -22 -20 1 -42 29 -44 55
-1 11 -9 22 -19 24 -10 3 -18 9 -18 14 0 12 80 7 93 -6z m317 -1 c0 -5 -2 -10
-4 -10 -3 0 -8 5 -11 10 -3 6 -1 10 4 10 6 0 11 -4 11 -10z m230 -30 c0 -5 -5
-10 -11 -10 -5 0 -7 5 -4 10 3 6 8 10 11 10 2 0 4 -4 4 -10z m-390 -4 c0 -3
-4 -8 -10 -11 -5 -3 -10 -1 -10 4 0 6 5 11 10 11 6 0 10 -2 10 -4z m-90 -27
c0 -5 -7 -9 -15 -9 -15 0 -20 12 -9 23 8 8 24 -1 24 -14z m-40 1 c0 -5 -4 -10
-10 -10 -5 0 -10 5 -10 10 0 6 5 10 10 10 6 0 10 -4 10 -10z m170 -15 c7 -13
17 -22 22 -19 4 3 8 0 8 -7 0 -8 -12 -10 -39 -5 -35 5 -39 4 -34 -13 3 -12 -2
-20 -16 -24 -22 -5 -30 16 -10 29 8 4 8 9 0 17 -25 25 -11 39 45 46 6 0 17
-10 24 -24z m323 7 c12 -14 14 -25 8 -47 -5 -17 -10 -25 -10 -18 -1 6 -11 13
-23 15 -23 3 -34 28 -24 54 7 19 30 18 49 -4z m-173 -2 c0 -5 -2 -10 -4 -10
-3 0 -8 5 -11 10 -3 6 -1 10 4 10 6 0 11 -4 11 -10z m-125 -59 c3 -5 1 -12 -5
-16 -5 -3 -10 1 -10 9 0 18 6 21 15 7z m-195 -41 c0 -5 6 -7 13 -4 30 11 46
-69 27 -137 -14 -49 -34 -66 -54 -46 -8 8 -13 16 -11 19 2 2 -14 4 -35 4 -22
0 -43 4 -46 7 -4 4 -9 40 -12 81 l-5 75 49 4 c27 2 55 4 62 5 6 1 12 -2 12 -8z
m90 -290 c0 -5 -4 -10 -10 -10 -5 0 -10 5 -10 10 0 6 5 10 10 10 6 0 10 -4 10
-10z m-170 -240 c0 -5 -2 -10 -4 -10 -3 0 -8 5 -11 10 -3 6 -1 10 4 10 6 0 11
-4 11 -10z m240 -34 c0 -3 -4 -8 -10 -11 -5 -3 -10 -1 -10 4 0 6 5 11 10 11 6
0 10 -2 10 -4z m-37 -26 c3 -11 2 -20 -3 -20 -4 0 -10 9 -13 20 -3 11 -2 20 3
20 4 0 10 -9 13 -20z m-28 -40 c3 -5 -1 -10 -9 -10 -9 0 -16 5 -16 10 0 6 4
10 9 10 6 0 13 -4 16 -10z m315 -24 c0 -3 -4 -8 -10 -11 -5 -3 -10 -1 -10 4 0
6 5 11 10 11 6 0 10 -2 10 -4z m72 -58 c-9 -9 -12 -7 -12 12 0 19 3 21 12 12
9 -9 9 -15 0 -24z m-77 -238 c3 -5 1 -10 -4 -10 -6 0 -11 5 -11 10 0 6 2 10 4
10 3 0 8 -4 11 -10z"/>
<path d="M3634 2815 c5 -15 -26 -39 -38 -28 -10 10 -6 -11 5 -27 8 -11 12 -12
16 -2 2 6 9 12 14 12 6 0 7 -5 3 -12 -12 -20 -13 -69 0 -65 6 2 11 14 10 26 0
11 2 21 5 21 4 0 5 20 3 45 -2 25 -9 45 -14 45 -6 0 -8 -7 -4 -15z"/>
<path d="M3705 2810 c-4 -12 -2 -27 3 -32 7 -7 12 -3 17 12 4 12 2 27 -3 32
-7 7 -12 3 -17 -12z"/>
<path d="M2828 2792 c9 -11 21 -17 25 -14 5 2 0 10 -10 18 -26 20 -36 17 -15
-4z"/>
<path d="M1840 2770 c0 -5 5 -10 10 -10 6 0 10 5 10 10 0 6 -4 10 -10 10 -5 0
-10 -4 -10 -10z"/>
<path d="M3801 2764 c0 -11 3 -14 6 -6 3 7 2 16 -1 19 -3 4 -6 -2 -5 -13z"/>
<path d="M505 2760 c4 -6 11 -8 16 -5 14 9 11 15 -7 15 -8 0 -12 -5 -9 -10z"/>
<path d="M2510 2760 c0 -5 7 -10 16 -10 8 0 12 5 9 10 -3 6 -10 10 -16 10 -5
0 -9 -4 -9 -10z"/>
<path d="M1703 2753 c-17 -6 -16 -28 1 -42 11 -10 16 -8 21 9 8 24 -3 40 -22
33z"/>
<path d="M2233 2753 c-7 -2 -13 -9 -13 -14 0 -12 37 -6 52 9 9 9 8 12 -7 11
-11 0 -26 -3 -32 -6z"/>
<path d="M3695 2750 c-3 -5 1 -10 9 -10 9 0 16 5 16 10 0 6 -4 10 -9 10 -6 0
-13 -4 -16 -10z"/>
<path d="M3343 2730 c1 -11 5 -20 9 -20 11 0 10 28 -1 35 -6 3 -9 -4 -8 -15z"/>
<path d="M1225 2730 c-3 -5 1 -10 9 -10 9 0 16 5 16 10 0 6 -4 10 -9 10 -6 0
-13 -4 -16 -10z"/>
<path d="M1270 2729 c0 -5 5 -7 10 -4 6 3 10 8 10 11 0 2 -4 4 -10 4 -5 0 -10
-5 -10 -11z"/>
<path d="M2777 2720 c3 -11 9 -20 15 -20 5 0 4 9 -2 20 -6 11 -12 20 -14 20
-2 0 -2 -9 1 -20z"/>
<path d="M3692 2697 c-1 -19 4 -42 11 -52 11 -15 13 -11 12 24 -1 52 -21 76
-23 28z"/>
<path d="M3799 2725 c-3 -5 -5 -29 -5 -52 2 -46 -2 -50 -23 -30 -11 10 -13 9
-9 -2 2 -8 13 -20 25 -28 18 -12 21 -12 24 4 6 25 -5 120 -12 108z"/>
<path d="M2230 2706 c0 -18 15 -23 53 -18 l30 5 -39 13 c-48 17 -44 17 -44 0z"/>
<path d="M2810 2711 c0 -3 4 -12 9 -20 8 -12 12 -12 25 -2 22 19 20 26 -9 27
-14 1 -25 -1 -25 -5z"/>
<path d="M653 2703 c-7 -2 -13 -12 -13 -21 -1 -15 -3 -14 -15 2 -8 11 -15 15
-15 9 0 -6 7 -17 16 -24 14 -11 18 -10 30 6 12 16 19 37 12 34 -2 0 -9 -3 -15
-6z"/>
<path d="M183 2689 c-21 -8 -33 -39 -15 -39 9 0 45 40 40 45 -2 1 -13 -1 -25
-6z"/>
<path d="M1905 2660 c-3 -5 1 -10 9 -10 9 0 16 5 16 10 0 6 -4 10 -9 10 -6 0
-13 -4 -16 -10z"/>
<path d="M1875 2620 c-3 -5 -1 -10 4 -10 6 0 11 5 11 10 0 6 -2 10 -4 10 -3 0
-8 -4 -11 -10z"/>
<path d="M3082 2610 c0 -14 2 -19 5 -12 2 6 2 18 0 25 -3 6 -5 1 -5 -13z"/>
<path d="M3435 2610 c3 -5 8 -10 11 -10 2 0 4 5 4 10 0 6 -5 10 -11 10 -5 0
-7 -4 -4 -10z"/>
<path d="M110 2599 c0 -5 5 -7 10 -4 6 3 10 8 10 11 0 2 -4 4 -10 4 -5 0 -10
-5 -10 -11z"/>
<path d="M3777 2584 c3 -7 9 -14 14 -14 14 0 10 17 -5 23 -10 4 -13 1 -9 -9z"/>
<path d="M122 2582 c-7 -2 -12 -23 -12 -54 0 -48 1 -50 25 -46 14 3 25 1 25
-6 0 -6 6 -2 12 8 8 15 8 24 -2 40 -8 12 -18 30 -24 42 -6 11 -17 19 -24 16z"/>
<path d="M3417 2570 c-3 -11 -3 -20 -1 -20 2 0 8 9 14 20 6 11 7 20 2 20 -6 0
-12 -9 -15 -20z"/>
<path d="M1592 2412 c-1 -15 -3 -36 -5 -46 -1 -10 4 -21 11 -23 8 -3 12 9 12
41 0 49 -13 70 -18 28z"/>
<path d="M3355 2401 c-3 -6 -4 -15 0 -20 3 -5 1 -12 -5 -16 -12 -8 -13 -35 -1
-35 5 0 12 16 16 36 6 37 2 54 -10 35z"/>
<path d="M1630 2351 c0 -5 5 -13 10 -16 6 -3 10 -2 10 4 0 5 -4 13 -10 16 -5
3 -10 2 -10 -4z"/>
<path d="M3330 2281 c0 -22 -5 -31 -17 -31 -9 0 -13 -3 -10 -7 4 -3 2 -12 -4
-20 -9 -9 -8 -13 0 -13 6 0 11 5 11 10 0 6 7 10 15 10 8 0 15 7 15 16 0 11 6
15 20 11 13 -3 20 0 20 9 0 8 -4 14 -10 14 -5 0 -9 5 -7 12 1 6 -6 14 -15 16
-14 3 -18 -3 -18 -27z"/>
<path d="M3035 2249 c-9 -14 -2 -20 14 -10 8 6 9 11 3 15 -6 3 -14 1 -17 -5z"/>
<path d="M3150 2239 c0 -5 5 -7 10 -4 6 3 10 8 10 11 0 2 -4 4 -10 4 -5 0 -10
-5 -10 -11z"/>
<path d="M3121 2213 c-7 -8 -11 -16 -8 -19 2 -2 10 2 17 11 17 20 9 27 -9 8z"/>
<path d="M3224 2220 c-12 -5 -27 -23 -33 -41 -13 -39 -13 -39 0 -39 5 0 7 5 4
10 -3 6 0 13 8 16 8 3 18 15 22 27 4 14 8 17 12 10 7 -18 23 -16 23 1 0 20
-11 25 -36 16z"/>
<path d="M3085 2190 c3 -5 8 -10 11 -10 2 0 4 5 4 10 0 6 -5 10 -11 10 -5 0
-7 -4 -4 -10z"/>
<path d="M3033 2130 c0 -30 2 -43 4 -27 2 15 2 39 0 55 -2 15 -4 2 -4 -28z"/>
<path d="M3130 2151 c0 -25 6 -27 13 -6 4 8 2 17 -3 20 -6 4 -10 -3 -10 -14z"/>
<path d="M3156 2114 c-4 -9 -13 -14 -21 -10 -8 3 -15 0 -15 -7 1 -15 24 -47
35 -47 4 0 2 7 -5 15 -10 12 -9 18 4 31 14 14 19 14 33 2 15 -11 16 -11 10 5
-4 10 -7 21 -7 23 0 12 -29 2 -34 -12z"/>
<path d="M3082 2092 c4 -12 3 -20 -2 -17 -4 3 -13 -2 -20 -10 -7 -8 -16 -12
-21 -9 -5 3 -9 -19 -8 -48 0 -29 3 -47 6 -40 2 6 11 12 18 12 8 0 19 9 25 20
6 11 15 18 21 15 5 -4 9 0 9 9 0 8 5 16 11 18 5 2 7 11 4 21 -4 9 -11 14 -16
11 -5 -3 -9 2 -9 10 0 8 -5 18 -12 22 -8 5 -9 0 -6 -14z"/>
<path d="M1876 2045 c-9 -26 -7 -32 5 -12 6 10 9 21 6 23 -2 3 -7 -2 -11 -11z"/>
<path d="M1545 2030 c3 -5 10 -10 16 -10 5 0 9 5 9 10 0 6 -7 10 -16 10 -8 0
-12 -4 -9 -10z"/>
<path d="M3292 2022 c4 -15 2 -22 -7 -22 -8 0 -16 -4 -20 -10 -8 -12 16 -50
32 -50 20 0 15 -38 -4 -43 -17 -4 -17 -5 1 -12 13 -6 21 -3 28 9 5 9 13 14 19
11 15 -10 10 -19 -16 -31 -36 -17 -61 5 -69 61 -4 25 -11 45 -15 45 -16 0 -20
-13 -10 -31 6 -13 6 -19 -1 -19 -5 0 -10 4 -10 10 0 6 -10 5 -26 -2 -19 -9
-27 -9 -33 0 -5 9 -12 8 -27 -3 -16 -13 -16 -14 -1 -9 11 4 17 1 17 -9 0 -9 3
-22 6 -31 3 -9 1 -16 -5 -16 -6 0 -11 10 -11 23 0 17 -6 23 -25 25 -18 1 -25
-3 -26 -16 0 -15 -1 -15 -11 -1 -10 14 -13 14 -30 -3 -16 -16 -18 -35 -18
-144 l0 -126 24 4 c17 3 27 0 31 -11 4 -10 8 -12 13 -4 10 15 63 13 69 -3 9
-23 22 -15 17 10 -2 14 0 28 6 31 5 3 10 -1 10 -9 0 -9 6 -13 14 -10 8 3 17 1
21 -5 4 -8 12 -8 26 -1 10 6 19 8 19 4 0 -3 7 -1 15 6 12 10 18 10 30 0 9 -8
15 -8 15 -2 0 11 45 10 57 -1 13 -14 25 -6 13 8 -10 12 -10 15 4 15 9 0 16 -6
16 -12 0 -9 3 -9 9 1 7 12 13 12 24 3 8 -7 28 -10 45 -8 17 2 33 -2 36 -8 3
-7 8 -6 14 3 8 11 16 12 39 3 15 -7 47 -11 69 -10 33 2 41 5 36 18 -5 13 -3
13 11 2 9 -8 22 -10 29 -6 22 14 78 16 78 2 0 -9 3 -9 12 0 7 7 20 12 29 12 9
0 20 7 23 16 9 22 8 24 -9 24 -8 0 -15 5 -15 10 0 6 7 10 15 10 26 0 15 144
-12 154 -21 8 -29 0 -15 -16 8 -10 4 -13 -14 -14 -25 -2 -34 20 -11 30 6 3 -5
5 -25 3 -21 -2 -38 1 -38 6 0 4 -4 6 -9 2 -5 -3 -13 0 -17 6 -4 8 -9 7 -15 -2
-8 -12 -11 -11 -20 1 -8 12 -9 10 -4 -8 6 -21 4 -23 -15 -17 -14 4 -25 2 -30
-5 -6 -9 -12 -9 -29 1 -17 11 -25 11 -41 1 -27 -16 -29 -15 -23 9 4 12 0 25
-8 29 -27 17 2 24 30 7 37 -21 62 -23 41 -3 -19 18 -71 28 -89 17 -10 -7 -11
-13 -1 -32 10 -22 9 -22 -14 4 -26 28 -50 35 -61 17 -4 -6 -12 -10 -18 -9 -7
1 -21 -2 -31 -6 -13 -6 -21 -4 -24 3 -2 7 -8 10 -13 6 -5 -3 -9 2 -9 10 0 9
-6 13 -14 10 -20 -8 -28 10 -17 39 8 19 6 27 -5 31 -8 3 -14 12 -14 20 0 8 -5
18 -12 22 -8 5 -9 0 -6 -14z m18 -52 c0 -5 -4 -10 -10 -10 -5 0 -10 5 -10 10
0 6 5 10 10 10 6 0 10 -4 10 -10z m-60 -120 c0 -5 -4 -10 -10 -10 -5 0 -10 5
-10 10 0 6 5 10 10 10 6 0 10 -4 10 -10z m510 0 c0 -5 -2 -10 -4 -10 -3 0 -8
5 -11 10 -3 6 -1 10 4 10 6 0 11 -4 11 -10z m-590 -21 c0 -5 -4 -9 -10 -9 -5
0 -10 7 -10 16 0 8 5 12 10 9 6 -3 10 -10 10 -16z m270 11 c0 -5 -4 -10 -10
-10 -5 0 -10 5 -10 10 0 6 5 10 10 10 6 0 10 -4 10 -10z m-80 -11 c0 -6 7 -9
14 -6 10 4 13 1 9 -9 -6 -17 -15 -18 -31 -2 -15 15 -16 28 -2 28 6 0 10 -5 10
-11z m245 1 c3 -5 1 -10 -4 -10 -6 0 -11 5 -11 10 0 6 2 10 4 10 3 0 8 -4 11
-10z m-40 -10 c-3 -5 -10 -10 -16 -10 -5 0 -9 5 -9 10 0 6 7 10 16 10 8 0 12
-4 9 -10z m-105 -18 c0 -10 -22 -32 -32 -32 -5 0 -3 9 4 20 13 20 28 27 28 12z
m175 -2 c3 -5 1 -10 -4 -10 -6 0 -11 5 -11 10 0 6 2 10 4 10 3 0 8 -4 11 -10z
m-112 -55 c4 -8 2 -17 -2 -20 -5 -2 -11 4 -14 15 -6 23 8 27 16 5z m-38 -15
c-3 -5 -10 -10 -16 -10 -5 0 -9 5 -9 10 0 6 7 10 16 10 8 0 12 -4 9 -10z m335
0 c0 -5 -4 -10 -10 -10 -5 0 -10 5 -10 10 0 6 5 10 10 10 6 0 10 -4 10 -10z
m-300 -30 c0 -5 -4 -10 -10 -10 -5 0 -10 5 -10 10 0 6 5 10 10 10 6 0 10 -4
10 -10z m260 0 c0 -5 -4 -10 -10 -10 -5 0 -10 5 -10 10 0 6 5 10 10 10 6 0 10
-4 10 -10z m-40 -30 c0 -5 -4 -10 -10 -10 -5 0 -10 5 -10 10 0 6 5 10 10 10 6
0 10 -4 10 -10z m-570 -10 c0 -5 -4 -10 -10 -10 -5 0 -10 5 -10 10 0 6 5 10
10 10 6 0 10 -4 10 -10z"/>
<path d="M1420 2000 c0 -13 10 -22 32 -28 21 -5 34 -16 36 -28 2 -10 9 -23 14
-29 8 -7 9 -6 4 2 -3 6 -2 14 4 18 5 3 10 1 10 -5 0 -6 5 -8 10 -5 14 8 13 65
-1 65 -6 0 -8 -7 -5 -16 6 -15 4 -15 -18 0 -14 9 -32 16 -40 16 -9 0 -13 6
-10 13 2 7 -4 13 -16 14 -14 1 -20 -4 -20 -17z"/>
<path d="M3745 2010 c-3 -5 -1 -10 4 -10 6 0 11 5 11 10 0 6 -2 10 -4 10 -3 0
-8 -4 -11 -10z"/>
<path d="M1557 1990 c3 -11 9 -20 14 -20 11 0 11 3 3 24 -9 23 -23 20 -17 -4z"/>
<path d="M3708 2005 c-7 -7 3 -55 11 -55 8 0 8 46 0 54 -3 3 -8 4 -11 1z"/>
<path d="M340 1991 c0 -5 5 -13 10 -16 6 -3 10 -2 10 4 0 5 -4 13 -10 16 -5 3
-10 2 -10 -4z"/>
<path d="M440 1989 c0 -5 5 -7 10 -4 6 3 10 8 10 11 0 2 -4 4 -10 4 -5 0 -10
-5 -10 -11z"/>
<path d="M635 1964 c4 -24 3 -34 -4 -29 -6 3 -11 13 -11 21 0 17 -20 19 -20 2
-1 -8 -6 -6 -14 5 -14 18 -46 23 -46 7 0 -5 7 -10 15 -10 8 0 15 -7 15 -15 0
-9 -6 -12 -15 -9 -8 4 -15 1 -15 -6 0 -6 -5 -8 -12 -4 -9 5 -9 2 1 -9 7 -9 10
-17 5 -18 -5 0 1 -4 12 -9 12 -4 24 -17 26 -28 6 -20 5 -20 -25 -3 -21 11 -34
29 -40 52 -10 39 -27 62 -27 37 0 -9 5 -20 10 -23 16 -10 12 -41 -9 -59 -11
-10 -17 -25 -14 -35 3 -11 0 -22 -5 -25 -6 -3 -8 -16 -5 -27 5 -19 3 -20 -18
-14 -32 10 -32 10 -36 52 -3 41 -13 58 -13 22 0 -28 -21 -79 -33 -79 -4 0 -19
7 -32 16 -15 10 -25 12 -25 5 0 -6 -7 -11 -15 -11 -8 0 -17 -11 -21 -25 -7
-29 -43 -42 -72 -26 -30 16 -35 14 -28 -14 4 -14 2 -25 -4 -25 -5 0 -10 5 -10
11 0 8 -4 8 -14 0 -11 -9 -15 -9 -19 1 -3 7 -6 -17 -6 -54 -1 -38 2 -69 7 -70
28 -5 80 -8 167 -9 67 0 117 -6 151 -18 47 -15 53 -16 63 -2 9 12 13 13 17 4
8 -18 24 -16 24 2 0 11 7 14 23 10 12 -3 45 -1 72 5 28 6 57 11 65 12 32 0
100 -11 117 -19 14 -7 88 -10 88 -3 0 1 8 3 18 5 45 8 47 13 47 85 0 47 -4 69
-11 68 -6 -2 -14 3 -17 11 -2 8 -1 11 4 8 5 -3 9 8 10 23 1 28 -18 46 -36 35
-4 -3 -11 2 -14 11 -9 23 -26 7 -26 -24 -1 -20 -3 -23 -9 -12 -11 18 -3 70 10
70 6 0 9 15 7 34 -1 19 3 41 10 48 9 12 8 14 -11 13 -12 -1 -22 -7 -22 -12 0
-6 -3 -15 -7 -19 -4 -4 -7 10 -6 30 1 20 3 34 6 31 7 -6 32 15 32 26 0 5 -5 9
-11 9 -5 0 -7 -4 -4 -10 3 -5 3 -10 -2 -10 -4 0 -18 -3 -30 -6 -17 -5 -23 -2
-23 9 0 22 -30 31 -31 9 0 -9 -3 -12 -5 -5 -4 9 -11 9 -31 0 -21 -9 -27 -8
-39 8 -8 10 -14 14 -14 8 0 -18 -31 -24 -46 -8 -23 23 -27 18 -19 -21z m91 -4
c9 0 12 -4 9 -10 -12 -19 -35 -10 -34 13 0 12 3 16 6 10 2 -7 11 -13 19 -13z
m-68 -15 c-3 -3 -9 2 -12 12 -6 14 -5 15 5 6 7 -7 10 -15 7 -18z m132 0 c9 5
11 4 6 -3 -13 -21 -46 -14 -46 10 0 21 1 21 13 3 9 -11 19 -15 27 -10z m-153
-31 c-6 -6 -47 9 -47 17 0 5 11 3 25 -3 14 -6 24 -13 22 -14z m193 16 c0 -5
-2 -10 -4 -10 -3 0 -8 5 -11 10 -3 6 -1 10 4 10 6 0 11 -4 11 -10z m-240 -30
c0 -5 -6 -10 -14 -10 -8 0 -18 5 -21 10 -3 6 3 10 14 10 12 0 21 -4 21 -10z
m-40 -65 c15 -18 -1 -20 -18 -3 -9 9 -12 7 -12 -11 0 -12 -4 -19 -10 -16 -5 3
-10 15 -10 26 0 23 32 26 50 4z m179 -11 c-6 -7 -17 -10 -26 -7 -17 7 -2 20
22 20 11 0 12 -4 4 -13z m-84 -4 c3 -5 -1 -10 -10 -10 -9 0 -13 5 -10 10 3 6
8 10 10 10 2 0 7 -4 10 -10z m205 -15 c-7 -8 -17 -12 -22 -9 -6 4 -5 10 3 15
22 14 33 10 19 -6z m-137 -6 c7 0 3 -4 -8 -9 -29 -13 -35 -12 -35 6 0 11 5 14
16 10 9 -3 21 -6 27 -7z m47 7 c0 -3 -4 -8 -10 -11 -5 -3 -10 -1 -10 4 0 6 5
11 10 11 6 0 10 -2 10 -4z m48 -27 c8 -12 19 -18 28 -15 9 3 12 2 9 -5 -4 -5
-1 -16 5 -24 10 -12 9 -15 -4 -15 -9 0 -19 8 -23 18 -3 9 -15 27 -26 40 -11
12 -16 22 -11 22 5 0 15 -9 22 -21z m-216 -7 c2 -4 14 -16 28 -27 14 -11 26
-28 26 -37 2 -21 -12 -24 -23 -4 -4 7 -19 17 -33 20 -19 6 -21 5 -10 -3 11 -8
12 -13 3 -22 -9 -9 -15 -6 -24 14 -14 32 -44 35 -61 7 -7 -11 -20 -20 -28 -21
-10 0 -11 -2 -2 -6 6 -2 12 -8 12 -12 0 -12 -36 -6 -53 7 -8 7 -22 10 -31 6
-11 -4 -16 -1 -16 11 0 10 5 13 12 9 8 -5 9 -1 5 12 -5 12 2 8 18 -11 18 -22
25 -25 25 -13 0 9 -4 20 -10 23 -5 3 -10 12 -10 18 1 7 9 2 19 -10 20 -24 36
-18 36 12 0 12 6 19 14 17 64 -14 71 -14 77 2 6 17 20 21 26 8z m-304 -48 c-7
-15 -14 -21 -16 -15 -5 16 5 41 17 41 7 0 6 -10 -1 -26z m86 11 c-7 -18 -44
-20 -44 -2 0 7 11 14 25 15 18 1 23 -2 19 -13z m356 -17 c0 -5 -7 -3 -15 6 -8
8 -15 18 -15 22 0 3 7 1 15 -6 8 -7 15 -17 15 -22z m-180 -2 c0 -2 -9 -6 -20
-9 -11 -3 -20 -1 -20 4 0 5 9 9 20 9 11 0 20 -2 20 -4z m150 -22 c0 -12 -4
-12 -20 -2 -11 7 -20 16 -20 19 0 4 9 5 20 2 11 -3 20 -12 20 -19z m-500 6 c0
-5 -5 -10 -11 -10 -5 0 -7 5 -4 10 3 6 8 10 11 10 2 0 4 -4 4 -10z m140 0 c0
-5 -2 -10 -4 -10 -3 0 -8 5 -11 10 -3 6 -1 10 4 10 6 0 11 -4 11 -10z m-90
-10 c0 -5 -5 -10 -11 -10 -5 0 -7 5 -4 10 3 6 8 10 11 10 2 0 4 -4 4 -10z m30
-24 c0 -3 -4 -8 -10 -11 -5 -3 -10 -1 -10 4 0 6 5 11 10 11 6 0 10 -2 10 -4z"/>
<path d="M407 1970 c-3 -12 0 -17 8 -14 7 3 16 0 20 -5 7 -12 25 -6 25 8 0 4
-11 13 -24 19 -20 9 -25 8 -29 -8z"/>
<path d="M510 1970 c0 -11 4 -20 9 -20 5 0 7 9 4 20 -3 11 -7 20 -9 20 -2 0
-4 -9 -4 -20z"/>
<path d="M1620 1961 c0 -11 5 -23 10 -26 6 -3 10 3 10 14 0 11 -4 23 -10 26
-5 3 -10 -3 -10 -14z"/>
<path d="M3680 1969 c0 -7 -10 -9 -26 -6 -21 4 -25 1 -22 -17 4 -28 48 -36 48
-9 0 11 5 24 12 31 9 9 9 12 0 12 -7 0 -12 -5 -12 -11z"/>
<path d="M2810 1946 c0 -9 5 -16 10 -16 6 0 10 4 10 9 0 6 -4 13 -10 16 -5 3
-10 -1 -10 -9z"/>
<path d="M300 1936 c0 -16 -3 -17 -12 -8 -30 30 -27 9 9 -57 1 -2 8 3 16 10
11 12 11 19 1 44 -10 22 -13 25 -14 11z"/>
<path d="M344 1934 c3 -9 6 -22 6 -30 0 -8 7 -14 15 -14 8 0 15 -5 15 -11 0
-5 4 -8 9 -4 5 3 12 1 16 -4 3 -6 12 -8 20 -4 8 3 15 0 15 -6 0 -6 -8 -11 -17
-11 -15 0 -16 -2 -3 -10 24 -16 30 -12 30 20 0 22 5 30 17 30 12 0 14 3 7 10
-7 7 -19 7 -35 2 -31 -12 -65 1 -74 27 -3 12 -11 21 -17 21 -5 0 -7 -7 -4 -16z"/>
<path d="M390 1926 c0 -9 5 -16 10 -16 6 0 10 4 10 9 0 6 -4 13 -10 16 -5 3
-10 -1 -10 -9z"/>
<path d="M2840 1928 c0 -17 18 -44 24 -37 8 7 -5 49 -15 49 -5 0 -9 -6 -9 -12z"/>
<path d="M3430 1929 c0 -5 5 -7 10 -4 6 3 10 8 10 11 0 2 -4 4 -10 4 -5 0 -10
-5 -10 -11z"/>
<path d="M3270 1919 c0 -5 5 -7 10 -4 6 3 10 8 10 11 0 2 -4 4 -10 4 -5 0 -10
-5 -10 -11z"/>
<path d="M200 1905 c0 -9 -6 -12 -17 -8 -15 5 -16 3 -6 -7 10 -11 15 -11 28 0
17 14 20 30 5 30 -5 0 -10 -7 -10 -15z"/>
<path d="M230 1909 c0 -5 5 -7 10 -4 6 3 10 8 10 11 0 2 -4 4 -10 4 -5 0 -10
-5 -10 -11z"/>
<path d="M243 1888 c-13 -6 -23 -15 -23 -20 0 -14 16 -9 41 12 26 21 17 25
-18 8z"/>
<path d="M2845 1871 c-3 -5 -1 -12 5 -16 5 -3 10 1 10 9 0 18 -6 21 -15 7z"/>
<path d="M282 1842 c28 -34 49 -52 62 -52 19 0 38 26 34 46 -5 25 -28 29 -35
6 -3 -13 -11 -18 -19 -15 -8 3 -12 9 -9 13 3 4 -6 10 -20 12 -22 5 -23 3 -13
-10z"/>
<path d="M1480 1850 c0 -5 5 -10 10 -10 6 0 10 5 10 10 0 6 -4 10 -10 10 -5 0
-10 -4 -10 -10z"/>
<path d="M910 1832 c0 -25 7 -31 31 -25 20 6 26 28 9 38 -6 3 -7 -1 -4 -9 4
-11 0 -16 -11 -16 -11 0 -15 5 -11 15 3 8 1 15 -4 15 -6 0 -10 -8 -10 -18z"/>
<path d="M243 1824 c-17 -18 -16 -27 1 -21 9 4 17 -1 19 -11 4 -14 5 -13 6 3
1 31 -12 45 -26 29z"/>
<path d="M423 1812 c-7 -4 -9 -13 -4 -21 6 -9 10 -7 14 8 3 12 4 21 4 21 -1 0
-7 -4 -14 -8z"/>
<path d="M110 1726 c0 -2 7 -6 15 -10 8 -3 15 -1 15 4 0 6 -7 10 -15 10 -8 0
-15 -2 -15 -4z"/>
<path d="M3480 1619 c0 -5 5 -7 10 -4 6 3 10 8 10 11 0 2 -4 4 -10 4 -5 0 -10
-5 -10 -11z"/>
<path d="M2080 1483 c0 -4 9 -14 21 -21 18 -12 20 -11 17 5 -3 17 -38 32 -38
16z"/>
<path d="M1885 1460 c3 -5 8 -10 11 -10 2 0 4 5 4 10 0 6 -5 10 -11 10 -5 0
-7 -4 -4 -10z"/>
<path d="M2530 1460 c0 -5 5 -10 10 -10 6 0 10 5 10 10 0 6 -4 10 -10 10 -5 0
-10 -4 -10 -10z"/>
<path d="M1445 1420 c-9 -10 -15 -26 -12 -34 3 -8 1 -17 -6 -20 -7 -2 -4 -5 6
-5 9 -1 17 -6 17 -13 0 -6 3 -8 7 -5 3 4 0 18 -7 32 -10 19 -11 28 -2 37 8 8
14 4 22 -16 5 -15 14 -25 19 -22 10 6 -8 66 -20 66 -3 0 -14 -9 -24 -20z"/>
<path d="M2245 1429 c-4 -6 -4 -13 -1 -16 3 -3 1 -12 -5 -19 -8 -9 -4 -16 13
-25 13 -7 29 -12 36 -11 6 2 12 -3 12 -10 0 -20 17 4 24 34 5 23 1 29 -26 42
-37 19 -45 20 -53 5z m69 -28 c3 -5 -4 -11 -16 -14 -25 -7 -33 -3 -23 12 8 13
32 14 39 2z"/>
<path d="M1535 1410 c-3 -5 1 -10 9 -10 9 0 16 5 16 10 0 6 -4 10 -9 10 -6 0
-13 -4 -16 -10z"/>
<path d="M267 1396 c-22 -17 -23 -49 -1 -44 18 3 38 44 26 52 -4 2 -15 -1 -25
-8z"/>
<path d="M1391 1384 c0 -11 3 -14 6 -6 3 7 2 16 -1 19 -3 4 -6 -2 -5 -13z"/>
<path d="M2355 1385 c-5 -11 -13 -23 -19 -27 -16 -11 6 -10 22 1 8 5 12 17 10
27 -5 18 -5 18 -13 -1z"/>
<path d="M156 1375 c-3 -9 0 -15 9 -15 16 0 20 16 6 24 -5 3 -11 -1 -15 -9z"/>
<path d="M2400 1380 c0 -5 5 -10 11 -10 5 0 7 5 4 10 -3 6 -8 10 -11 10 -2 0
-4 -4 -4 -10z"/>
<path d="M1339 1363 c-10 -2 -16 -14 -16 -29 0 -32 19 -26 28 9 4 15 7 26 6
26 -1 -1 -9 -3 -18 -6z"/>
<path d="M2386 1345 c4 -8 10 -15 15 -15 5 0 9 7 9 15 0 8 -7 15 -15 15 -9 0
-12 -6 -9 -15z"/>
<path d="M445 1339 c-4 -6 -5 -13 -2 -16 7 -7 27 6 27 18 0 12 -17 12 -25 -2z"/>
<path d="M795 1334 c-17 -13 -18 -16 -5 -24 21 -13 27 -12 34 6 14 36 4 43
-29 18z"/>
<path d="M1362 1330 c0 -14 2 -19 5 -12 2 6 2 18 0 25 -3 6 -5 1 -5 -13z"/>
<path d="M2228 1343 c7 -3 16 -2 19 1 4 3 -2 6 -13 5 -11 0 -14 -3 -6 -6z"/>
<path d="M430 1269 c0 -5 5 -7 10 -4 6 3 10 8 10 11 0 2 -4 4 -10 4 -5 0 -10
-5 -10 -11z"/>
<path d="M2090 1270 c0 -5 5 -10 10 -10 6 0 10 5 10 10 0 6 -4 10 -10 10 -5 0
-10 -4 -10 -10z"/>
<path d="M257 1263 c-14 -13 -6 -33 12 -33 14 0 18 5 14 20 -5 21 -15 25 -26
13z"/>
<path d="M2060 1171 c0 -14 5 -18 20 -14 11 3 20 7 20 9 0 2 -9 8 -20 14 -17
9 -20 8 -20 -9z"/>
<path d="M2172 1160 c0 -14 2 -19 5 -12 2 6 2 18 0 25 -3 6 -5 1 -5 -13z"/>
<path d="M2400 1139 c0 -5 5 -7 10 -4 6 3 10 8 10 11 0 2 -4 4 -10 4 -5 0 -10
-5 -10 -11z"/>
<path d="M1480 1135 c0 -13 21 -45 30 -45 17 0 4 45 -13 48 -10 2 -17 1 -17
-3z"/>
<path d="M2230 1130 c0 -5 5 -10 11 -10 5 0 7 5 4 10 -3 6 -8 10 -11 10 -2 0
-4 -4 -4 -10z"/>
<path d="M2635 1121 c-3 -5 -2 -12 3 -15 5 -3 9 1 9 9 0 17 -3 19 -12 6z"/>
<path d="M1462 1089 c2 -6 8 -10 13 -10 5 0 11 4 13 10 2 6 -4 11 -13 11 -9 0
-15 -5 -13 -11z"/>
<path d="M1520 1075 c-7 -8 -16 -30 -20 -48 l-8 -32 -1 33 c-1 22 -6 32 -17
32 -10 0 -14 -6 -11 -14 4 -10 1 -13 -9 -9 -7 3 -14 13 -14 22 0 14 -2 14 -10
1 -6 -9 -6 -18 0 -24 13 -13 13 -29 0 -21 -13 8 -12 5 1 -34 8 -23 14 -29 24
-21 6 5 15 7 18 4 3 -3 18 6 34 20 15 14 35 26 44 26 9 0 19 6 22 14 4 11 -2
12 -29 6 -36 -8 -49 4 -14 13 12 3 20 14 20 26 0 25 -12 27 -30 6z m-53 -87
c-3 -8 -6 -5 -6 6 -1 11 2 17 5 13 3 -3 4 -12 1 -19z"/>
<path d="M1620 1025 c0 -18 -16 -20 -23 -2 -4 9 -6 9 -6 0 -1 -16 14 -24 33
-17 17 7 22 34 6 34 -5 0 -10 -7 -10 -15z"/>
<path d="M1668 1033 c6 -2 12 -11 12 -19 0 -8 4 -14 8 -14 4 0 8 9 8 20 0 14
-7 20 -21 19 -11 0 -14 -3 -7 -6z"/>
<path d="M1710 1025 c0 -8 5 -15 10 -15 6 0 10 7 10 15 0 8 -4 15 -10 15 -5 0
-10 -7 -10 -15z"/>
<path d="M1740 1016 c0 -9 5 -16 10 -16 6 0 10 4 10 9 0 6 -4 13 -10 16 -5 3
-10 -1 -10 -9z"/>
<path d="M1535 980 c3 -5 8 -10 11 -10 2 0 4 5 4 10 0 6 -5 10 -11 10 -5 0 -7
-4 -4 -10z"/>
<path d="M1752 950 c0 -14 2 -19 5 -12 2 6 2 18 0 25 -3 6 -5 1 -5 -13z"/>
<path d="M1100 449 c0 -6 5 -19 10 -30 7 -12 7 -25 1 -36 -6 -11 -6 -24 0 -35
7 -14 5 -23 -7 -35 -13 -14 -14 -18 -3 -22 15 -4 29 -21 29 -34 0 -5 -4 -5
-10 -2 -5 3 -10 1 -10 -4 0 -6 7 -11 15 -11 8 0 15 -9 15 -21 0 -19 1 -19 33
5 19 15 39 26 46 26 13 0 4 51 -12 61 -5 4 -7 15 -5 25 3 16 7 13 21 -13 10
-18 22 -33 28 -33 7 0 6 6 -2 17 -13 15 -12 16 9 11 12 -4 22 -3 22 2 0 4 -10
10 -22 14 -19 5 -20 8 -8 15 12 8 12 13 -4 30 -22 25 -49 27 -66 6 -9 -11 -17
-12 -31 -4 -17 9 -18 12 -4 25 12 12 12 19 2 34 -12 21 -47 28 -47 9z"/>
<path d="M1170 420 c0 -11 5 -20 10 -20 6 0 10 9 10 20 0 11 -4 20 -10 20 -5
0 -10 -9 -10 -20z"/>
<path d="M1517 335 c6 -17 25 -15 31 3 2 7 -5 12 -17 12 -14 0 -19 -5 -14 -15z"/>
<path d="M1757 331 c-6 -9 -27 -23 -44 -30 -18 -7 -33 -17 -33 -21 0 -5 -17
-6 -39 -3 -41 6 -62 -10 -42 -30 8 -8 11 -7 11 3 1 11 3 11 11 -2 5 -10 15
-18 20 -18 6 0 8 4 5 8 -2 4 3 8 13 8 10 0 18 -7 17 -15 -1 -10 9 -16 29 -17
17 -1 35 -3 40 -4 42 -10 78 36 56 72 -7 12 -6 18 4 22 22 8 18 19 -10 33 -21
9 -27 8 -38 -6z"/>
<path d="M1423 319 c14 -8 22 -8 30 0 8 8 3 11 -18 11 -26 -1 -28 -2 -12 -11z"/>
<path d="M1600 320 c0 -5 5 -10 11 -10 5 0 7 5 4 10 -3 6 -8 10 -11 10 -2 0
-4 -4 -4 -10z"/>
<path d="M1640 306 c0 -9 5 -16 10 -16 6 0 10 4 10 9 0 6 -4 13 -10 16 -5 3
-10 -1 -10 -9z"/>
</g>
</svg>
